<?xml version="1.0" encoding="utf-8"?>
<!-- Generator: Adobe Illustrator 28.0.0, SVG Export Plug-In . SVG Version: 6.00 Build 0)  -->
<svg version="1.1" id="Layer_1" xmlns="http://www.w3.org/2000/svg" xmlns:xlink="http://www.w3.org/1999/xlink" x="0px" y="0px"
	 viewBox="0 0 1920 1080" style="enable-background:new 0 0 1920 1080;" xml:space="preserve">
<style type="text/css">
	.st0{fill:#FFFFFF;}
	.st1{fill:#282425;}
	.st2{fill:#792BAD;}
	.st3{fill:#EF374B;}
	.st4{fill:#FBCFB4;}
	.st5{fill:#FACEB3;}
	.st6{fill:#FCFCFC;}
	.st7{fill:#D7C0E7;}
	.st8{fill:#F9CDB2;}
	.st9{fill:#FDFDFD;}
	.st10{fill:#FBFBFB;}
	.st11{fill:#DD9284;}
	.st12{fill:#F7CCB0;}
	.st13{fill:#FACEB2;}
	.st14{fill:#BFCCD2;}
	.st15{fill:#C49283;}
	.st16{fill:#6167A8;}
	.st17{fill:#7B4B4B;}
	.st18{fill:#292424;}
	.st19{fill:#272222;}
	.st20{fill:#F7949C;}
	.st21{fill:#262223;}
	.st22{fill:#D4E0F1;}
</style>
<g>
	<path class="st0" d="M661.9,110.37c182.37,0,364.74,0,547.15,0c0,215.7,0,431.41,0,647.19c-182.36,0-364.75,0-547.15,0
		C661.9,541.84,661.9,326.11,661.9,110.37z M1196.08,751.18c0.07,0.26,0.09,0.55,0.23,0.77c0.87,1.38,1.85,1.84,3.11,1.46
		c1.34-0.4,1.75-1.42,1.76-2.7c0-0.63,0.01-1.26,0-1.89c-0.2-13.12-0.32-26.24-0.62-39.36c-0.51-22.38-1.86-44.71-4.3-66.97
		c-1.62-14.74-3.74-29.39-7.14-43.84c-2.2-9.36-4.86-18.58-9.06-27.28c-1.8-3.73-3.9-7.28-6.61-10.44
		c-2.82-3.27-6.16-5.71-10.39-6.9c-2.15-0.61-4.27-1.38-6.36-2.19c-25.84-10.02-51.67-20.06-77.52-30.06
		c-1.82-0.7-3.21-1.71-4.42-3.28c-1.35-1.77-3-3.35-4.69-4.81c-1.68-1.45-3.58-2.66-5.42-4c0-1.71,0-3.4,0-5.19
		c0.89-0.31,1.72-0.62,2.56-0.88c9.28-2.93,18.12-6.83,26.57-11.65c15.51-8.84,29-20.2,41.27-33.09c4.5-4.73,8.13-10.03,11.04-15.85
		c3.14-6.29,5.47-12.88,7.45-19.6c0.19-0.66,0.47-1.3,0.63-1.73c3.28-0.51,6.34-0.77,9.29-1.48c10.69-2.6,18.86-8.94,25.31-17.66
		c6.83-9.23,10.81-19.64,12.1-31.01c0.75-6.65,0.53-13.3-2.04-19.64c-2.53-6.25-6.79-10.71-13.44-12.6
		c-0.46-0.13-0.91-0.33-1.48-0.54c4.38-10.63,7.61-21.39,10.07-32.42c0.44,0.52,0.65,1,0.82,1.49c0.42,1.26,1.31,1.99,2.61,1.91
		c1.31-0.08,2.07-0.98,2.41-2.21c0.24-0.86,0.46-1.73,0.67-2.61c3.04-12.44,4.6-25.07,4.93-37.86c0.47-18.84-1.71-37.32-7.7-55.22
		c-9.58-28.61-28.75-47.26-58.04-55.18c-1.24-0.34-1.86-0.98-2.45-2.14c-1.72-3.35-3.44-6.74-5.61-9.79
		c-8.14-11.45-19.31-18.85-32.38-23.55c-11.52-4.13-23.53-5.74-35.65-6.41c-20.43-1.13-40.5,1.24-60.22,6.71
		c-17.31,4.8-33.51,12.1-49.17,20.87c-19.79,11.08-41.01,15.43-63.61,11.82c-2.31-0.37-3.58,0.53-3.48,2.85
		c0.13,2.94,0.32,5.95,1.03,8.79c2.2,8.76,7.83,14.98,15.32,19.69c0.82,0.51,1.63,1.03,2.52,1.6c-0.38,0.31-0.56,0.5-0.79,0.64
		c-11.63,7.16-19.76,17.35-25.37,29.65c-5.8,12.7-8.17,26.17-8.69,40.02c-0.59,15.62,1.3,31.03,4.42,46.3
		c0.9,4.39,2.03,8.74,3.05,13.11c0.3,1.27,1.05,2.11,2.36,2.23c1.21,0.11,2.01-0.58,2.57-1.61c0.37-0.68,0.78-1.34,1.14-1.94
		c1.99,8.04,3.96,15.98,5.95,24.03c-8.92,3.36-12.94,10.55-14.33,19.67c-0.74,4.84-0.62,9.68,0.13,14.5
		c1.98,12.75,6.99,24.1,15.76,33.64c6.51,7.08,14.42,11.79,23.98,13.48c2.2,0.39,4.44,0.54,6.64,0.79c1.27,3.83,2.45,7.6,3.77,11.31
		c3.84,10.81,9.41,20.56,17.84,28.5c4.12,3.88,8.11,7.91,12.36,11.64c13.7,11.98,28.85,21.64,45.93,28.11
		c2.75,1.04,5.55,1.99,8.34,2.98c0,1.64-0.05,3.16,0.02,4.68c0.06,1.31-0.54,2.05-1.55,2.87c-2.43,1.97-4.83,4.03-6.94,6.33
		c-1.27,1.38-2.55,2.33-4.33,2.9c-18.8,6.03-37.37,12.68-55.53,20.46c-10.65,4.56-21.11,9.52-30.93,15.71
		c-6.7,4.22-12.49,9.35-16.75,16.11c-1.58,2.51-3.39,4.87-4.94,7.39c-12.06,19.57-24.08,39.16-36.12,58.75
		c-0.5,0.81-0.97,1.63-1.66,2.78c-0.28-0.77-0.46-1.08-0.5-1.4c-0.78-5.51-1.55-11.03-2.29-16.54c-1.05-7.83-2.04-15.67-3.14-23.5
		c-0.54-3.88-2.92-6.26-6.77-7.01c-1.13-0.22-2.28-0.33-3.39-0.49c-1.45-6.1-5.99-7.08-11.34-6.95c-0.69-3.69-1.4-7.29-2.01-10.9
		c-0.11-0.65,0.06-1.43,0.32-2.06c2.91-7.26,3.74-14.76,2.67-22.48c-1.37-9.86-4.73-18.94-10.5-27.1
		c-5.64-8-11.21-16.05-16.88-24.02c-2.03-2.85-4.15-5.64-6.46-8.26c-1.28-1.45-2.92-2.69-4.6-3.68c-3.67-2.17-7.54-1.21-9.75,2.47
		c-0.94,1.58-1.57,3.44-1.94,5.25c-0.99,4.81-0.69,9.65,0.12,14.46c-0.14,0.15-0.28,0.29-0.41,0.44
		c-5.33-3.96-10.55-8.09-16.03-11.84c-10.4-7.12-21.36-13.22-33.38-17.24c-5.05-1.69-10.18-2.85-15.57-2.64
		c-5.3,0.2-9.13,2.36-10.76,7.67c-0.05,0.15-0.22,0.25-0.38,0.43c-8.01-0.95-15.4-0.43-18.61,8.77c-3.94,0.28-7.5,1.14-9.4,4.91
		c-1.95,3.85-0.13,7.09,2.11,10.27c-1.29,0.61-2.44,1.06-3.5,1.67c-3.89,2.25-4.41,6.05-1.13,9.11c1.36,1.27,2.98,2.32,4.61,3.23
		c13.07,7.33,26.18,14.59,39.26,21.92c1.31,0.74,2.54,1.67,3.68,2.65c5.09,4.41,9.97,9.08,15.24,13.27
		c14.32,11.39,30.02,20.3,47.63,25.55c1.39,0.42,2.08,1.23,2.66,2.38c2.31,4.62,3.41,9.62,4.77,14.55c0.52,1.89,0.25,3.17-1.09,4.55
		c-2.7,2.78-3.8,6.04-2.37,9.87c0.51,1.36,0.17,2.55-0.49,3.83c-2.45,4.75-3.69,9.78-2.39,15.1c3.83,15.69,7.65,31.38,11.69,47.02
		c2.83,10.94,5.87,21.83,9.09,32.66c1.69,5.68,4.1,11.12,7.49,16.05c4.34,6.32,10.35,9.45,18.02,9.54
		c7.85,0.09,15.04-1.98,21.75-6.03c8.26-4.98,15.82-10.9,23.12-17.17c16.04-13.78,30.87-28.8,45.3-44.23
		c0.65-0.69,1.31-1.37,2.21-2.3c0.36,2.14,0.64,3.81,0.91,5.48c2.26,13.82,4.51,27.64,6.77,41.46c1.63,10.01,3.26,20.03,4.88,30.04
		c0.2,1.25,0.66,2.3,2.08,2.42c1.42,0.12,2.13-0.73,2.39-2.04c1.16-0.03,2.33-0.09,3.49-0.09c28.07-0.01,56.14-0.02,84.2-0.03
		c0.22,0.47,0.38,0.99,0.69,1.4c1.54,2.06,3.52,1.49,4.79-1.36c6.23,0,12.45,0,18.68,0c0.33,1.4,1.08,2.47,2.6,2.53
		c1.55,0.06,2.27-1.08,2.74-2.38c0.03-0.08,0.09-0.15,0.14-0.22c1.49-0.05,2.99-0.11,4.48-0.16c1,0.01,2.01,0.03,3.01,0.04
		c0.8,0.04,1.61,0.11,2.41,0.11c19.36,0,38.72-0.01,58.08-0.01c7.17,0,14.34,0.04,21.51,0.06c0.06,1.43,0.99,2.01,2.23,2.13
		c1.11,0.11,1.81-0.53,2.17-1.58c0.08-0.24,0.24-0.46,0.37-0.69c11.71,0.02,23.42,0.03,35.14,0.06
		C1187.14,751.11,1191.61,751.16,1196.08,751.18z"/>
	<path class="st1" d="M1060.76,751.02c-1-0.01-2.01-0.03-3.01-0.04c-0.91-1.42-0.56-2.64,0.42-3.93c2.27-3.01,4.51-6.05,6.64-9.16
		c13.8-20.19,25.82-41.44,37.6-62.84c4.28-7.79,8.5-15.62,12.62-23.49c6.42-12.25,12.75-24.54,19.09-36.83
		c1.1-2.13,1.06-2.22-0.83-3.84c-4.02-3.44-8.08-6.85-12.12-10.26c-3.84-3.24-7.7-6.46-11.51-9.74c-1.74-1.5-1.83-2.18-0.84-4.21
		c0.28-0.56,0.59-1.11,0.89-1.66c4.41-7.92,8.83-15.84,13.24-23.76c0.69-1.24,1.38-2.47,2.15-3.86c-4.01-2.73-7.84-5.34-11.68-7.95
		c-9.31-6.48-18.61-12.99-27.96-19.41c-1.33-0.91-2.95-1.4-4.84-2.27c1.07,4.15,2,7.75,2.92,11.36c0.01,0.54-0.01,1.08,0.03,1.61
		c0.49,6.61,1.28,13.22,1.42,19.84c0.16,7.89-0.05,15.8-0.42,23.68c-0.38,8.15-0.89,16.3-1.79,24.4
		c-1.12,10.05-2.62,20.07-4.11,30.08c-2.35,15.87-5.36,31.63-9.04,47.24c-3.95,16.75-8.19,33.42-12.36,50.12
		c-1.26,5.04-2.67,10.04-4.01,15.06c-0.05,0.07-0.11,0.14-0.14,0.22c-0.48,1.31-1.19,2.44-2.74,2.38c-1.52-0.06-2.27-1.13-2.6-2.53
		c3.91-14.74,7.83-29.49,11.72-44.24c0.2-0.76,0.28-1.6,0.18-2.37c-1.01-7.46-2.12-14.91-3.11-22.38
		c-1.36-10.23-2.62-20.47-3.96-30.7c-1.53-11.65-3.11-23.3-4.66-34.95c-1.43-10.76-2.81-21.53-4.26-32.29
		c-0.41-3.04-0.49-5.99,0.28-9.04c1.19-4.69,2.06-9.47,2.99-14.22c0.14-0.72,0.16-1.71-0.22-2.24c-2.62-3.63-5.36-7.16-8.04-10.69
		c-0.39,0.19-0.6,0.23-0.7,0.36c-2.63,3.41-5.28,6.81-7.82,10.29c-0.39,0.53-0.41,1.52-0.27,2.23c1.02,5.1,2.16,10.18,3.2,15.28
		c0.33,1.65,0.68,3.25,0.42,5.03c-0.92,6.21-1.59,12.46-2.37,18.69c-0.96,7.66-1.92,15.31-2.9,22.97c-1,7.83-2.01,15.66-3.01,23.5
		c-0.97,7.66-1.93,15.31-2.9,22.97c-1.01,7.92-2.01,15.84-3.04,23.76c-0.52,4-1.1,8-1.61,12c-0.12,0.94-0.28,1.95-0.05,2.83
		c3.78,14.41,7.62,28.8,11.45,43.2c-1.27,2.85-3.25,3.42-4.79,1.36c-0.31-0.41-0.46-0.93-0.69-1.4c-0.03-0.27-0.03-0.54-0.1-0.8
		c-5.9-20.7-11.31-41.53-15.92-62.56c-2.96-13.48-5.6-27.03-8.07-40.61c-1.61-8.81-2.76-17.71-3.94-26.59
		c-0.88-6.66-1.6-13.35-2.17-20.05c-0.64-7.5-1.27-15.02-1.49-22.55c-0.34-11.58-0.33-23.16,1.01-34.7
		c0.17-1.42,0.25-2.84,0.37-4.26c1.09-4.01,2.19-8.02,3.44-12.63c-1.92,1.02-3.49,1.65-4.83,2.61
		c-7.35,5.31-14.65,10.69-21.95,16.06c-0.93,0.69-1.8,1.46-2.7,2.19c-3.19,2.28-6.38,4.56-9.56,6.85c-1.44,1.04-2.84,2.12-4.34,3.24
		c0.37,0.75,0.62,1.31,0.92,1.84c5.08,9.09,10.18,18.18,15.26,27.28c1.14,2.04,1.02,2.87-0.59,4.23
		c-5.14,4.35-10.3,8.68-15.43,13.04c-3.41,2.89-6.8,5.81-10.24,8.76c0.4,0.97,0.69,1.81,1.09,2.61
		c6.5,13.12,12.95,26.27,19.53,39.35c9.29,18.46,19.05,36.67,29.46,54.52c7.14,12.27,14.5,24.4,22.93,35.84
		c0.48,0.65,1.14,1.32,1.23,2.05c0.1,0.77-0.17,1.8-0.67,2.39c-0.71,0.83-1.81,0.75-2.67,0.02c-0.47-0.4-0.84-0.93-1.19-1.45
		c-3.47-5.03-7.05-9.98-10.36-15.11c-14.18-22-26.6-44.99-38.62-68.21c-7.23-13.96-14.1-28.11-21.11-42.18
		c-1.4-2.81-2.73-5.67-4.02-8.53c-0.88-1.94-0.71-2.87,0.71-4.07c6.09-5.17,12.2-10.32,18.3-15.49c2.44-2.07,4.85-4.17,7.16-6.17
		c-0.2-0.65-0.24-0.92-0.36-1.15c-5.17-9.25-10.34-18.51-15.55-27.73c-0.7-1.23-1.08-2.44-0.89-3.83c1.76-1.21,3.56-2.39,5.29-3.65
		c7.94-5.8,15.85-11.62,23.78-17.43c0.52-0.35,1.04-0.7,1.56-1.04c-0.07-0.13-0.15-0.27-0.22-0.4c-0.42,0.16-0.85,0.33-1.27,0.49
		c-5.71,2.13-11.45,4.2-17.13,6.41c-13.72,5.33-27.25,11.07-40.12,18.27c-8.72,4.88-16.3,10.86-21.91,19.42
		c-15.42,23.5-29.78,47.64-44.14,71.79c-0.39,0.66-0.76,1.53-0.66,2.24c0.58,3.99,1.3,7.95,1.97,11.93
		c0.06,0.71,0.06,1.44,0.19,2.14c1.16,6.44,2.34,12.88,3.5,19.32c0.36,2.01-0.26,3.33-1.73,3.7c-1.59,0.4-2.86-0.59-3.39-2.64
		c-0.04-0.17-0.06-0.36-0.09-0.53c-0.89-4.85-1.89-9.68-2.64-14.56c-2.09-13.74-4.12-27.49-6.09-41.24
		c-1.31-9.14-2.48-18.3-3.69-27.45c-0.33-2.47-0.84-2.98-3.88-3.34c0.08,0.91,0.07,1.79,0.25,2.63c0.61,2.9,1.22,5.79,1.94,8.66
		c0.59,2.38,0.43,4.71-0.8,6.77c-1.46,2.45-3.01,4.91-4.89,7.04c-4.33,4.91-9.68,8.57-15.47,11.54c-8.28,4.24-16.98,6.73-26.42,5.73
		c-2.87-0.3-3.49-0.76-4.27-3.54c-0.69-2.47-1.4-4.93-2.2-7.72c-1.1,2.85-0.97,5.29-0.35,7.8c3.99,16.01,7.84,32.07,11.95,48.05
		c2.68,10.42,5.59,20.79,8.71,31.09c1.53,5.05,3.62,9.96,6.73,14.34c2.54,3.57,5.73,6.39,10.16,6.95
		c5.66,0.72,11.39,0.57,16.64-1.95c4.19-2.01,8.31-4.29,12.15-6.9c12.52-8.51,23.7-18.68,34.46-29.25
		c10.38-10.19,20.31-20.85,30.45-31.28c0.88-0.91,1.2-1.71,0.96-3.07c-1.39-8.04-2.62-16.11-3.92-24.16
		c-1.52-9.38-3.08-18.76-4.62-28.13c-0.54-3.27-1.1-6.54-1.62-9.82c-0.25-1.58,0.39-2.63,1.67-2.9c1.34-0.28,2.26,0.36,2.72,1.95
		c0.12,0.43,0.15,0.88,0.22,1.32c0.62,3.9,1.22,7.8,1.86,11.69c1.53,9.38,3.08,18.76,4.62,28.13c1.55,9.47,3.1,18.93,4.64,28.4
		c1.51,9.29,3.01,18.59,4.53,27.88c1.35,8.32,2.73,16.63,4.08,24.95c1.41,8.76,2.8,17.53,4.19,26.3c-0.26,1.31-0.97,2.16-2.39,2.04
		c-1.42-0.12-1.88-1.17-2.08-2.42c-1.62-10.01-3.25-20.03-4.88-30.04c-2.25-13.82-4.51-27.64-6.77-41.46
		c-0.27-1.67-0.56-3.34-0.91-5.48c-0.9,0.94-1.57,1.61-2.21,2.3c-14.43,15.43-29.25,30.46-45.3,44.23
		c-7.3,6.27-14.86,12.18-23.12,17.17c-6.71,4.05-13.9,6.12-21.75,6.03c-7.66-0.09-13.68-3.22-18.02-9.54
		c-3.39-4.93-5.8-10.37-7.49-16.05c-3.23-10.83-6.27-21.72-9.09-32.66c-4.04-15.64-7.85-31.33-11.69-47.02
		c-1.3-5.32-0.06-10.35,2.39-15.1c0.66-1.27,1-2.47,0.49-3.83c-1.43-3.83-0.32-7.09,2.37-9.87c1.34-1.38,1.61-2.66,1.09-4.55
		c-1.36-4.93-2.46-9.93-4.77-14.55c-0.58-1.15-1.26-1.97-2.66-2.38c-17.62-5.25-33.31-14.17-47.63-25.55
		c-5.26-4.19-10.14-8.86-15.24-13.27c-1.14-0.99-2.37-1.92-3.68-2.65c-13.08-7.33-26.19-14.59-39.26-21.92
		c-1.63-0.92-3.25-1.96-4.61-3.23c-3.28-3.06-2.76-6.86,1.13-9.11c1.06-0.61,2.22-1.06,3.5-1.67c-2.25-3.18-4.06-6.42-2.11-10.27
		c1.91-3.77,5.46-4.63,9.4-4.91c3.2-9.2,10.6-9.72,18.61-8.77c0.16-0.18,0.34-0.29,0.38-0.43c1.63-5.31,5.45-7.47,10.76-7.67
		c5.38-0.2,10.52,0.95,15.57,2.64c12.02,4.02,22.98,10.12,33.38,17.24c5.48,3.75,10.69,7.88,16.03,11.84
		c0.2,0.06,0.4,0.13,0.59,0.19c-0.06-0.21-0.12-0.42-0.18-0.63c-0.81-4.82-1.11-9.66-0.12-14.46c0.37-1.81,1-3.67,1.94-5.25
		c2.2-3.68,6.08-4.65,9.75-2.47c1.68,0.99,3.32,2.23,4.6,3.68c2.31,2.62,4.44,5.41,6.46,8.26c5.67,7.97,11.24,16.03,16.88,24.02
		c5.76,8.16,9.12,17.24,10.5,27.1c1.08,7.72,0.24,15.22-2.67,22.48c-0.25,0.63-0.43,1.41-0.32,2.06c0.61,3.62,1.32,7.22,2.01,10.9
		c5.35-0.13,9.89,0.85,11.34,6.95c1.11,0.16,2.26,0.27,3.39,0.49c3.85,0.75,6.23,3.13,6.77,7.01c1.1,7.83,2.09,15.67,3.14,23.5
		c0.74,5.52,1.52,11.03,2.29,16.54c0.05,0.33,0.22,0.63,0.5,1.4c0.69-1.16,1.17-1.98,1.66-2.78c12.03-19.59,24.06-39.18,36.12-58.75
		c1.55-2.52,3.36-4.88,4.94-7.39c4.26-6.76,10.06-11.89,16.75-16.11c9.83-6.19,20.28-11.15,30.93-15.71
		c18.15-7.78,36.73-14.43,55.53-20.46c1.78-0.57,3.07-1.53,4.33-2.9c2.12-2.3,4.51-4.35,6.94-6.33c1-0.82,1.61-1.56,1.55-2.87
		c-0.07-1.52-0.02-3.04-0.02-4.68c-2.79-1-5.58-1.94-8.34-2.98c-17.08-6.47-32.23-16.13-45.93-28.11
		c-4.26-3.72-8.24-7.75-12.36-11.64c-8.43-7.95-13.99-17.69-17.84-28.5c-1.32-3.71-2.49-7.48-3.77-11.31
		c-2.2-0.26-4.44-0.4-6.64-0.79c-9.56-1.69-17.47-6.4-23.98-13.48c-8.77-9.54-13.79-20.89-15.76-33.64
		c-0.75-4.82-0.87-9.66-0.13-14.5c1.39-9.12,5.41-16.31,14.33-19.67c-1.99-8.05-3.96-16-5.95-24.03c-0.36,0.6-0.77,1.26-1.14,1.94
		c-0.56,1.03-1.36,1.72-2.57,1.61c-1.32-0.12-2.07-0.96-2.36-2.23c-1.02-4.37-2.15-8.72-3.05-13.11
		c-3.12-15.27-5.01-30.68-4.42-46.3c0.52-13.85,2.89-27.32,8.69-40.02c5.62-12.3,13.74-22.48,25.37-29.65
		c0.22-0.14,0.41-0.33,0.79-0.64c-0.89-0.56-1.7-1.08-2.52-1.6c-7.49-4.71-13.12-10.93-15.32-19.69c-0.71-2.84-0.9-5.85-1.03-8.79
		c-0.11-2.31,1.16-3.22,3.48-2.85c22.61,3.62,43.82-0.73,63.61-11.82c15.66-8.77,31.86-16.06,49.17-20.87
		c19.72-5.47,39.79-7.84,60.22-6.71c12.12,0.67,24.14,2.28,35.65,6.41c13.07,4.69,24.24,12.1,32.38,23.55
		c2.17,3.05,3.89,6.45,5.61,9.79c0.59,1.16,1.21,1.8,2.45,2.14c29.28,7.92,48.45,26.57,58.04,55.18c6,17.91,8.18,36.39,7.7,55.22
		c-0.32,12.8-1.89,25.42-4.93,37.86c-0.21,0.87-0.43,1.74-0.67,2.61c-0.34,1.24-1.1,2.13-2.41,2.21c-1.3,0.08-2.19-0.65-2.61-1.91
		c-0.17-0.49-0.37-0.97-0.82-1.49c-2.46,11.03-5.68,21.79-10.07,32.42c0.57,0.21,1.02,0.41,1.48,0.54
		c6.65,1.88,10.91,6.34,13.44,12.6c2.57,6.34,2.8,12.99,2.04,19.64c-1.29,11.37-5.27,21.78-12.1,31.01
		c-6.45,8.71-14.62,15.05-25.31,17.66c-2.95,0.72-6.01,0.97-9.29,1.48c-0.16,0.43-0.44,1.07-0.63,1.73
		c-1.98,6.73-4.31,13.32-7.45,19.6c-2.91,5.83-6.54,11.13-11.04,15.85c-12.28,12.89-25.76,24.25-41.27,33.09
		c-8.45,4.81-17.3,8.72-26.57,11.65c-0.84,0.27-1.67,0.57-2.56,0.88c0,1.79,0,3.48,0,5.19c1.84,1.34,3.74,2.55,5.42,4
		c1.69,1.46,3.34,3.04,4.69,4.81c1.2,1.57,2.6,2.58,4.42,3.28c25.85,10,51.68,20.04,77.52,30.06c2.09,0.81,4.2,1.58,6.36,2.19
		c4.22,1.19,7.57,3.62,10.39,6.9c2.71,3.16,4.81,6.71,6.61,10.44c4.2,8.7,6.86,17.92,9.06,27.28c3.4,14.44,5.52,29.1,7.14,43.84
		c2.45,22.26,3.8,44.59,4.3,66.97c0.3,13.12,0.42,26.24,0.62,39.36c0.01,0.63,0,1.26,0,1.89c0,1.28-0.42,2.3-1.76,2.7
		c-1.25,0.38-2.23-0.08-3.11-1.46c-0.14-0.22-0.16-0.51-0.23-0.77c-0.12-9.34-0.15-18.68-0.38-28.02
		c-0.27-11.04-0.6-22.08-1.09-33.11c-0.4-8.96-1.01-17.92-1.64-26.86c-0.48-6.8-0.94-13.61-1.79-20.37
		c-1.22-9.78-2.63-19.55-4.25-29.27c-1.8-10.81-4.37-21.45-8.07-31.78c-0.36-1-0.77-1.97-1.15-2.96c-0.19,0-0.38,0-0.57,0.01
		c-1.51,8.6-3.02,17.2-4.52,25.8c-1.51,8.66-3,17.31-4.49,25.97c-1.49,8.66-2.95,17.32-4.43,25.98c-1.47,8.59-3.14,17.14-4.09,25.87
		c0.79-0.46,1.4-0.98,1.8-1.62c1.59-2.5,3.24-4.97,4.66-7.56c6.45-11.74,10.64-24.3,13.41-37.37c0.13-0.61,0.28-1.23,0.54-1.79
		c0.38-0.83,1.16-1.29,1.98-0.9c0.54,0.26,1.1,0.95,1.2,1.53c0.15,0.85,0.03,1.81-0.2,2.66c-1.35,5.12-2.56,10.28-4.19,15.31
		c-4.47,13.77-10.4,26.78-20.31,37.64c-0.57,0.62-0.94,1.54-1.1,2.38c-0.79,4.23-1.48,8.48-2.21,12.72
		c-1.92,11.13-3.85,22.26-5.74,33.39c-0.69,4.06-1.29,8.14-1.93,12.21c-0.13,0.23-0.29,0.45-0.37,0.69
		c-0.35,1.05-1.06,1.69-2.17,1.58c-1.24-0.12-2.17-0.71-2.23-2.13c0.36-1.85,0.74-3.69,1.06-5.54c1.93-11.12,3.83-22.25,5.76-33.38
		c1.68-9.71,3.36-19.41,5.04-29.12c1.74-10.07,3.47-20.13,5.21-30.2c1.68-9.71,3.36-19.42,5.04-29.14
		c1.74-10.07,3.48-20.13,5.2-30.2c0.98-5.74,1.92-11.48,2.88-17.22c0.23-1.14,0.33-2.33,0.71-3.42c0.57-1.64,0.02-2.93-0.82-4.28
		c-3.15-5.02-6.96-9.16-13.11-10.37c-0.52-0.1-1.02-0.34-1.52-0.53c-15.08-5.75-30.16-11.5-45.25-17.24
		c-1.84-0.7-3.7-1.34-5.55-2.01c-1.05-0.48-2.1-0.97-3.16-1.45c-0.27-0.03-0.53-0.06-0.8-0.09c-0.08-0.07-0.17-0.15-0.25-0.22
		c0.07,0.08,0.14,0.17,0.21,0.25c0.27,0.18,0.53,0.35,0.8,0.53c0.82,0.53,1.64,1.06,2.46,1.59c0.71,0.54,1.39,1.12,2.12,1.62
		c6.34,4.39,12.69,8.76,19.02,13.17c0.88,0.61,1.65,1.36,2.47,2.05c-0.67,1.63-1.19,3.35-2.03,4.89
		c-4.59,8.33-9.28,16.61-13.9,24.92c-1.21,2.18-1.15,2.21,0.69,3.78c7.59,6.44,15.2,12.87,22.76,19.35
		c2.89,2.48,2.88,2.57,1.18,5.86c-7.79,15.07-15.38,30.25-23.45,45.17c-9.35,17.29-18.97,34.43-28.76,51.47
		C1078.89,725.14,1070.37,738.45,1060.76,751.02z M1191.3,210.13c0,0,0.02,0.03,0.02,0.03c-0.22-0.94-0.32-1.93-0.68-2.82
		c-4.94-12.21-12.3-22.69-22.61-30.96c-9.23-7.41-19.53-12.66-31.19-15.08c-1.98-0.19-3.25-1.17-3.77-3.17
		c-0.24-0.94-0.73-1.82-1.15-2.71c-3.48-7.4-8.48-13.62-14.89-18.65c-2.56-2.01-5.46-3.59-8.21-5.37c-1.63-0.88-3.25-1.75-4.88-2.63
		c-2.14-0.92-4.23-1.96-6.42-2.74c-12.84-4.57-26.23-5.92-39.71-6.39c-11.33-0.4-22.6,0.61-33.79,2.5
		c-20.52,3.48-40,10.05-58.39,19.8c-7.14,3.78-14.02,8.04-21.59,10.98c-15.56,6.05-31.59,8.78-48.28,7.13
		c-1.13-0.11-2.26-0.13-3.51-0.19c0.49,6.23,2.87,11.23,6.83,15.52c3.72,4.04,8.25,6.9,13.35,8.87c1.32,0.51,2.48,1.1,2.44,2.8
		c-0.04,1.53-1.11,2.03-2.27,2.66c-2.99,1.62-6.05,3.19-8.79,5.18c-9.42,6.85-15.8,16.09-20.27,26.72
		c-3.75,8.93-5.76,18.29-6.71,27.91c-1.08,10.87-0.83,21.72,0.48,32.53c0.8,6.59,2,13.13,3.02,19.69c0.52,2.24,1.04,4.48,1.66,7.19
		c0.52-0.88,0.8-1.32,1.04-1.78c1.71-3.25,3.39-6.53,5.13-9.76c0.79-1.46,2.25-1.94,3.61-1.31c1.26,0.59,1.75,1.91,1.12,3.45
		c-0.54,1.33-1.15,2.65-1.93,3.85c-0.83,1.28-1.03,2.59-1.08,4.07c-0.18,6.34,1.01,12.5,2.51,18.59c1.02,4.16,2.41,8.23,3.66,12.42
		c6.47-0.07,12.08,2.12,17.54,5.43c0.05-0.94,0.1-1.47,0.11-2c0.17-9.69,0.09-19.4,0.58-29.08c0.33-6.42,1.17-12.84,2.31-19.17
		c2-11.04,4.97-21.84,9.53-32.15c3.44-7.77,7.75-15.02,13.46-21.31c5.94-6.55,13.09-11.44,21.61-14.12c1.4-0.44,2.28-1.2,2.94-2.49
		c3.77-7.28,8.38-13.98,13.68-20.24c7.82-9.23,16.92-16.79,27.9-21.99c2.92-1.38,3.69-1.11,5.15,1.95
		c-0.76,1.24-1.75,2.12-3.11,2.77c-10.37,4.97-18.97,12.19-26.32,20.96c-10.22,12.2-17.27,26.13-22.32,41.15
		c-0.22,0.65-0.35,1.33-0.63,2.37c4.89-1.16,9.51-2.06,13.94-3.75c0.27-0.04,0.54-0.04,0.79-0.12c12.34-3.95,24.13-9.12,35.43-15.48
		c10.34-5.82,20.04-12.56,29.26-20.01c4.18-3.37,8.22-6.93,12.15-10.6c3.01-2.81,5.76-5.9,8.58-8.91c1.77-1.9,3.38-3.96,5.21-5.79
		c1.76-1.77,3.12-1.53,4.59,0.58c0.15,0.22,0.28,0.46,0.41,0.69c-0.71,1.13-1.27,2.39-2.16,3.35c-2.59,2.81-4.55,5.99-6.22,9.39
		c-4.82,9.87-8.45,20.2-11.87,30.6c-0.16,0.48-0.14,1.02-0.24,1.86c3.8-0.59,7.42-0.85,10.82-2.33c0.79-0.09,1.62-0.06,2.37-0.27
		c4.48-1.27,8.98-2.47,13.4-3.92c10.31-3.39,19.91-8.05,28.1-15.38c4.79-4.28,8.46-9.28,10.65-15.27c1.51-4.12,2.68-8.35,1.73-12.86
		c-0.32-1.52,0.93-2.79,2.47-2.93c1.49-0.14,2.7,0.71,2.72,2.29c0.04,3.04,0.04,6.11-0.31,9.12c-0.53,4.52-2.46,8.6-4.63,12.55
		c-0.67,1.22-1.03,2.4-0.78,3.84c1.42,8.18,4.02,15.99,7.46,23.51c5.73,12.53,12.98,24.18,21.34,35.12
		c2.99,3.92,6.24,7.63,9.18,11.59c4.13,5.56,6.27,12.03,8.27,18.58c1.92,6.29,1.7,12.78,1.98,19.18c0.37,8.52,0.12,17.07,0.13,25.61
		c0,0.95,0,1.9,0,3.29c1.74-1.02,2.95-1.98,4.33-2.48c2.76-1.01,5.59-1.84,8.43-2.59c1.55-0.41,2.6-0.95,3.29-2.64
		c2.63-6.49,4.87-13.1,6.72-19.86c1.84-6.75,3.19-13.58,4.05-20.52c0.11-0.93-0.12-1.96-0.42-2.86c-1.06-3.14-2.25-6.24-3.33-9.38
		c-0.78-2.26-0.27-3.52,1.51-4.17c1.51-0.55,2.6,0.23,3.43,2.49c1.59,4.38,3.16,8.77,4.76,13.15c0.18,0.5,0.5,0.96,0.93,1.75
		c0.33-1.58,0.6-2.71,0.8-3.85c1.48-8.48,2.26-17.04,2.59-25.62c0.25-6.44-0.09-12.92-0.55-19.36c-0.35-4.89-1.24-9.75-2-14.61
		c-1.18-7.62-3.17-15.04-5.74-22.31C1191.79,210.88,1191.55,210.5,1191.3,210.13z M1059.75,515.43c-0.13-3.02-0.26-6.04-0.41-9.39
		c-14.57,3.51-28.78,2.7-43.24-0.49c0,1.23,0.02,2.11,0,2.99c-0.08,3.32,0.05,6.67-0.32,9.96c-0.28,2.45,0.31,4.38,1.89,6.13
		c4.56,6.88,10.37,12.32,17.97,15.78c1.98,0.9,3.64,0.84,5.6-0.05c6.39-2.93,11.37-7.47,15.51-13.03c3.8-5.11,3.78-5.12,3.09-11.36
		C1059.82,515.78,1059.78,515.6,1059.75,515.43z M1158.62,400.27c-1,5.24-2,10.48-3.04,15.93c1.18-0.06,2.07-0.04,2.93-0.16
		c6.83-0.98,13.02-3.55,18.19-8.1c13.61-11.96,19.67-27.27,19.29-45.22c-0.08-3.95-1.04-7.84-3.06-11.34
		c-2.83-4.89-7.01-7.56-12.74-7.6c-5.33-0.04-10.01,1.75-14.21,4.95c-2.13,1.62-3.38,3.56-3.22,6.41c0.13,2.41-0.13,4.84-0.21,7.27
		c-0.02,0.48,0,0.97,0,2.02c1.02-1.02,1.64-1.61,2.23-2.23c2.49-2.63,5.24-4.93,8.67-6.25c5.37-2.06,10.23-0.95,14.56,2.67
		c1.38,1.15,1.53,2.64,0.57,3.77c-0.92,1.09-2.16,1.18-3.61,0.26c-0.23-0.14-0.43-0.32-0.64-0.49c-3.27-2.6-7.63-3.15-11.87,0.17
		c-4.71,3.22-7.79,7.81-10.49,12.69c-0.33,0.59-0.34,1.37-0.43,2.07C1160.55,384.82,1159.59,392.55,1158.62,400.27z M918.39,400.57
		c-0.89-7.2-1.76-14.41-2.67-21.61c-0.17-1.33-0.13-2.81-0.73-3.94c-2.61-4.95-5.79-9.48-10.51-12.72
		c-4.39-3.03-7.56-3.05-11.86-0.09c-0.44,0.3-0.88,0.82-1.34,0.84c-0.83,0.04-1.89,0.05-2.46-0.41c-0.57-0.47-0.99-1.58-0.87-2.31
		c0.12-0.76,0.85-1.56,1.52-2.08c4.75-3.7,9.9-4.37,15.38-1.74c2.96,1.42,5.39,3.54,7.59,5.93c0.59,0.63,1.12,1.32,1.68,1.98
		c0.28-3.54,0.03-6.81,0.08-10.07c0.03-2.01-0.76-3.44-2.14-4.7c-3.56-3.24-7.76-5.19-12.52-5.71c-8.36-0.92-14.39,2.85-16.93,10.87
		c-1.02,3.21-1.68,6.68-1.66,10.03c0.06,15.06,5.13,28.3,15.35,39.42c5.09,5.53,11.3,9.39,18.7,11.09c2.05,0.47,4.11,1.17,6.37,0.64
		C920.36,410.77,919.38,405.67,918.39,400.57z M1065.25,583.35c-0.16-0.32-0.27-0.66-0.48-0.94c-4.21-5.57-8.43-11.13-12.66-16.69
		c-0.3-0.4-0.68-0.75-1.27-1.38c-0.2,0.83-0.33,1.3-0.42,1.78c-0.91,4.46-1.82,8.93-2.72,13.4c0.47,4.1,0.89,8.2,1.43,12.29
		c2.06,15.75,4.18,31.49,6.25,47.25c2.06,15.75,4.09,31.51,6.13,47.26c0.15,1.16,0.3,2.31,0.47,3.47c0.16,1.05,0.37,2.1,0.55,3.15
		c9.78-41.95,17.37-84.09,17.29-127.27c-0.38,0.35-0.51,0.75-0.62,1.16c-1.84,6.84-3.67,13.68-5.53,20.51
		c-0.26,0.95-0.65,1.89-1.81,2.13c-1.25,0.26-2.01-0.41-2.72-1.31C1067.85,586.53,1066.54,584.95,1065.25,583.35z M1011.62,583.32
		c-1.4,1.75-2.74,3.54-4.21,5.23c-1.4,1.6-3.14,1.27-4-0.69c-0.25-0.57-0.43-1.18-0.59-1.79c-1.68-6.23-3.35-12.47-5.04-18.7
		c-0.2-0.73-0.46-1.44-0.7-2.16c-0.27,0.52-0.28,0.96-0.27,1.4c0.04,21.96,2.21,43.75,5.45,65.45c3.04,20.33,7.03,40.48,11.67,60.51
		c0.12,0.52,0.39,1,0.8,1.98c0.76-6.03,1.43-11.46,2.12-16.89c1.36-10.69,2.73-21.37,4.08-32.06c1.33-10.51,2.65-21.02,3.99-31.53
		c1.35-10.6,2.72-21.19,4.06-31.79c0.13-1.05,0.05-2.12,0.06-3.19c-0.33-3.69-2.45-12.86-3.4-14.52c-2.53,3.33-5.03,6.59-7.5,9.89
		C1015.95,577.39,1013.79,580.36,1011.62,583.32z M958.79,232.66c-4.99,1.83-9.12,4.96-12.92,8.56
		c-5.94,5.65-10.34,12.41-13.8,19.78c-8.17,17.41-12.19,35.92-12.89,54.99c-0.97,26.6-0.26,53.2,3.64,79.61
		c1.73,11.73,4.18,23.31,8.14,34.51c3.04,8.61,6.91,16.8,13.17,23.6c9.46,10.29,19.8,19.59,31.4,27.43
		c15.5,10.47,32.14,18.28,50.8,21.06c9.84,1.47,19.7,1.54,29.46-0.68c10.64-2.43,20.77-6.26,30.47-11.27
		c17.04-8.8,31.61-20.78,44.82-34.57c4.4-4.59,7.91-9.74,10.71-15.43c3.95-8.02,6.53-16.5,8.62-25.14
		c4.79-19.92,6.71-40.22,7.31-60.62c0.44-14.91,0.17-29.84,0-44.75c-0.05-3.92-0.59-7.9-1.48-11.72
		c-1.81-7.77-5.05-14.85-10.35-21.04c-7.07-8.27-13.29-17.2-18.9-26.53c-6.74-11.2-12.43-22.87-15.72-35.6
		c-0.32-1.26-0.64-2.52-1.02-4.02c-0.54,0.49-0.87,0.76-1.17,1.07c-4.47,4.63-9.63,8.35-15.25,11.44
		c-15.18,8.35-31.72,12.27-48.66,14.84c-2.58,0.39-3.7-1.01-3.18-3.53c0.14-0.7,0.36-1.39,0.6-2.07c2.63-7.54,5.28-15.08,7.92-22.62
		c0.3-0.86,0.58-1.74,0.87-2.61c-0.18-0.11-0.37-0.22-0.55-0.33c-0.8,0.68-1.61,1.34-2.4,2.03c-12.28,10.89-25.56,20.36-39.98,28.21
		c-16.19,8.82-33.27,15.14-51.35,18.88c-3.99,0.83-5.65-1.13-4.25-4.82c2.27-6.04,4.35-12.15,6.52-18.24
		c0.02-0.21,0.04-0.42,0.06-0.63C959.19,232.52,958.99,232.59,958.79,232.66z M818.7,581.96c-0.2-0.07-0.39-0.14-0.59-0.22
		c-0.24,0.38-0.41,0.86-0.75,1.11c-1.21,0.91-2.52,0.9-3.41,0.01c-0.96-0.96-0.98-2.08-0.36-3.21c0.34-0.63,0.83-1.17,1.23-1.77
		c2.76-4.06,4.78-8.45,5.58-13.3c2.27-13.76-1.36-26.19-9.01-37.55c-5.81-8.64-11.88-17.12-17.91-25.61
		c-1.71-2.41-3.65-4.66-5.58-6.9c-0.75-0.87-1.74-1.57-2.72-2.19c-1.64-1.03-2.64-0.8-3.5,0.93c-0.55,1.11-0.93,2.35-1.13,3.57
		c-1.38,8.5,0.55,16.05,6.56,22.39c1.11,1.17,2.17,2.43,3.43,3.42c1.77,1.39,1.98,2.88,1.27,4.96c-1.89,5.56-2.93,11.31-2.66,17.21
		c0.26,5.83,1.81,11.16,6.41,15.19c0.33,0.29,0.83,0.65,0.85,1c0.05,0.93,0.16,2.05-0.29,2.74c-0.37,0.57-1.52,0.85-2.32,0.85
		c-0.61,0-1.3-0.55-1.82-1c-2.85-2.46-4.82-5.53-6.12-9.05c-1.52-4.11-1.9-8.38-1.78-12.73c0.13-4.7,0.96-9.28,2.23-13.79
		c0.23-0.82,0.58-1.61-0.21-2.49c-2.62-2.93-5.13-5.95-7.87-9.17c-2.49,0.25-5.28,0.4-8.01,0.84c-17.4,2.85-32.95,9.79-46.45,21.21
		c-0.48,0.41-0.94,0.85-1.48,1.16c-1.14,0.65-2.37,0.44-3.19-0.46c-0.88-0.97-0.88-2.32,0.07-3.42c0.41-0.47,0.92-0.85,1.4-1.26
		c4.52-3.86,9.39-7.24,14.52-10.23c0.58-0.34,1.15-0.71,1.92-1.19c-0.76-0.54-1.24-0.91-1.76-1.24c-9.69-6.27-19.94-11.42-30.8-15.3
		c-6.77-2.42-13.68-4.38-20.82-5.37c-1.76-0.24-3.59-0.32-5.35-0.13c-1.83,0.2-2.92,1.67-2.73,3.1c0.28,2.12,3.48,5.51,5.66,5.97
		c13.94,2.93,26.45,8.99,37.97,17.23c0.58,0.41,1.15,0.89,1.56,1.45c0.66,0.89,0.58,1.87-0.09,2.75c-0.72,0.93-1.66,1.4-2.83,0.91
		c-0.57-0.24-1.09-0.62-1.61-0.97c-1.64-1.1-3.24-2.27-4.9-3.33c-9.47-6.03-19.57-10.57-30.59-12.93c-2.97-0.63-6.56,0.3-8.9,2.45
		c1.47,0.96,2.83,1.96,4.29,2.78c13.09,7.32,26.21,14.58,39.28,21.91c1.47,0.82,2.84,1.87,4.11,2.98
		c3.92,3.44,7.65,7.09,11.65,10.42c13.3,11.04,27.81,20.09,44.23,25.73c4.9,1.68,10.04,2.68,15.07,3.98
		c1.84,0.47,2.67,1.43,2.44,2.93c-0.21,1.37-1.23,2.09-2.97,2.08c-0.75,0-1.5,0-1.99,0c2.3,8.97,4.57,17.81,6.87,26.78
		c3.59-0.13,7.05-0.98,10.41-2.24c6.77-2.53,12.62-6.4,17.27-12.02c1.07-1.29,1.46-2.44,0.77-4.14c-0.97-2.4-1.63-4.94-2.29-7.46
		C820.15,588.25,819.45,585.09,818.7,581.96z M1065.11,516.24c0.08,1.49-0.05,2.5,0.21,3.4c0.62,2.11-0.11,3.83-1.14,5.59
		c-2.17,3.74-4.73,7.19-7.71,10.33c-3.99,4.2-8.64,7.5-14.23,9.92c9.41,12.39,18.68,24.62,28.16,37.11c0.32-0.83,0.5-1.23,0.63-1.65
		c2.68-9.13,4.9-18.37,6.36-27.76c0.77-4.93,1.8-9.86,0.71-14.95c-1.61-7.54-4.47-14.37-10.23-19.72
		C1067.11,517.8,1066.27,517.19,1065.11,516.24z M1010.67,517.49c-0.52,0.2-0.8,0.23-0.96,0.38c-8.11,7.57-12.04,16.99-11.18,27.97
		c0.85,10.83,3.49,21.4,6.36,31.88c0.42,1.53,0.92,3.04,1.5,4.96c9.54-12.57,18.79-24.76,28.14-37.09c-0.5-0.28-0.78-0.46-1.08-0.6
		c-8.98-4.03-15.6-10.68-20.96-18.77c-1.39-2.1-2.29-4.23-1.84-6.8C1010.76,518.86,1010.67,518.26,1010.67,517.49z M792.74,636.11
		c2.53,0,4.79,0.25,6.98-0.04c11.81-1.58,21.8-6.9,30.19-15.25c1.63-1.62,2.88-3.65,4.15-5.6c0.85-1.3,0.95-2.76,0.57-4.38
		c-1.27-5.42-2.35-10.87-3.51-16.31c-0.57-2.68-1.67-3.33-4.76-2.8c0.26,0.85,0.51,1.7,0.74,2.48c3.45,0.9,4.01,1.88,3.06,5.22
		c-0.88,3.1-2.7,5.66-4.81,8.01c-6.24,6.95-13.99,11.43-22.99,13.75c-4.35,1.12-8.74,1.91-13.62-0.2
		C790.13,626.23,791.4,631.04,792.74,636.11z M769.06,512.03c-0.43-0.41-0.66-0.67-0.93-0.89c-10.05-7.89-20.71-14.85-32.25-20.38
		c-5.67-2.72-11.49-5.06-17.68-6.35c-3.34-0.7-6.71-1.23-10.13-0.32c-1.81,0.49-2.98,1.5-3.22,3.56c0.83,0.26,1.58,0.53,2.34,0.73
		c6.79,1.75,13.35,4.16,19.72,7.08c10.26,4.71,19.68,10.72,28.03,18.36c0.74,0.68,1.37,1.33,2.56,1.02
		C761.22,513.89,764.97,513.02,769.06,512.03z M686.07,496.26c20.63,3.93,39.15,12.42,56.35,24.14c2.7-1.15,5.34-2.28,8.29-3.54
		c-1.56-1.33-2.75-2.42-4.02-3.4c-14.21-11.03-30.06-18.45-47.83-21.53c-2.35-0.41-4.84-0.39-7.23-0.15
		C689.05,492.04,686.88,493.22,686.07,496.26z M788.37,614.09c-0.92,1.25-1.3,2.27-0.18,3.4
		C789.28,616.05,789.28,616.05,788.37,614.09z M1051.57,206.65c-0.05-0.06-0.11-0.12-0.16-0.19c-0.06,0.06-0.12,0.11-0.18,0.17
		c0.08,0.06,0.16,0.13,0.25,0.19C1051.5,206.76,1051.54,206.71,1051.57,206.65z"/>
	<path class="st2" d="M948.24,555.36c-0.2,1.39,0.19,2.6,0.89,3.83c5.22,9.22,10.38,18.48,15.55,27.73c0.13,0.23,0.16,0.5,0.36,1.15
		c-2.31,2-4.72,4.1-7.16,6.17c-6.09,5.17-12.21,10.31-18.3,15.49c-1.42,1.21-1.59,2.13-0.71,4.07c1.3,2.86,2.62,5.72,4.02,8.53
		c7.01,14.07,13.89,28.22,21.11,42.18c12.02,23.22,24.44,46.22,38.62,68.21c3.31,5.13,6.89,10.08,10.36,15.11
		c0.35,0.51,0.72,1.05,1.19,1.45c0.86,0.73,1.96,0.82,2.67-0.02c0.5-0.58,0.76-1.61,0.67-2.39c-0.09-0.72-0.76-1.4-1.23-2.05
		c-8.43-11.45-15.78-23.58-22.93-35.84c-10.4-17.86-20.17-36.06-29.46-54.52c-6.58-13.08-13.03-26.23-19.53-39.35
		c-0.39-0.79-0.69-1.64-1.09-2.61c3.45-2.95,6.83-5.87,10.24-8.76c5.14-4.35,10.3-8.68,15.43-13.04c1.61-1.36,1.72-2.2,0.59-4.23
		c-5.08-9.1-10.17-18.19-15.26-27.28c-0.3-0.53-0.55-1.09-0.92-1.84c1.49-1.12,2.9-2.2,4.34-3.24c3.18-2.3,6.37-4.57,9.56-6.85
		c2.39-0.71,4.79-1.39,7.16-2.15c6.3-2.01,12.59-4.05,18.88-6.08c-0.12,1.42-0.2,2.85-0.37,4.26c-1.35,11.54-1.36,23.13-1.01,34.7
		c0.22,7.52,0.85,15.04,1.49,22.55c0.57,6.7,1.29,13.39,2.17,20.05c1.18,8.88,2.33,17.78,3.94,26.59
		c2.48,13.58,5.12,27.13,8.07,40.61c4.61,21.02,10.02,41.86,15.92,62.56c0.07,0.25,0.07,0.53,0.1,0.8
		c-28.07,0.01-56.14,0.01-84.2,0.03c-1.16,0-2.33,0.06-3.49,0.09c-1.4-8.77-2.78-17.53-4.19-26.3c-1.34-8.32-2.72-16.63-4.08-24.95
		c-1.51-9.29-3.01-18.59-4.53-27.88c-1.54-9.47-3.09-18.94-4.64-28.4c-1.54-9.38-3.09-18.75-4.62-28.13
		c-0.64-3.89-1.24-7.79-1.86-11.69c-0.07-0.44-0.1-0.9-0.22-1.32c-0.46-1.59-1.37-2.23-2.72-1.95c-1.28,0.27-1.92,1.32-1.67,2.9
		c0.52,3.28,1.08,6.54,1.62,9.82c1.54,9.38,3.09,18.75,4.62,28.13c1.31,8.05,2.53,16.12,3.92,24.16c0.24,1.36-0.08,2.17-0.96,3.07
		c-10.15,10.43-20.07,21.09-30.45,31.28c-10.77,10.57-21.94,20.74-34.46,29.25c-3.84,2.61-7.96,4.88-12.15,6.9
		c-5.25,2.52-10.99,2.67-16.64,1.95c-4.43-0.56-7.62-3.38-10.16-6.95c-3.11-4.37-5.2-9.28-6.73-14.34
		c-3.12-10.3-6.03-20.67-8.71-31.09c-4.12-15.98-7.96-32.04-11.95-48.05c-0.63-2.51-0.75-4.95,0.35-7.8c0.8,2.8,1.51,5.26,2.2,7.72
		c0.78,2.77,1.4,3.23,4.27,3.54c9.45,1,18.14-1.49,26.42-5.73c5.79-2.97,11.14-6.63,15.47-11.54c1.88-2.13,3.43-4.59,4.89-7.04
		c1.22-2.06,1.39-4.38,0.8-6.77c-0.71-2.87-1.33-5.77-1.94-8.66c-0.18-0.84-0.17-1.72-0.25-2.63c3.04,0.37,3.55,0.87,3.88,3.34
		c1.21,9.15,2.39,18.31,3.69,27.45c1.97,13.76,4,27.51,6.09,41.24c0.74,4.87,1.75,9.7,2.64,14.56c0.03,0.18,0.04,0.36,0.09,0.53
		c0.53,2.06,1.79,3.05,3.39,2.64c1.47-0.37,2.1-1.69,1.73-3.7c-1.17-6.44-2.35-12.88-3.5-19.32c-0.13-0.7-0.13-1.43-0.19-2.14
		c0.35-0.4,0.77-0.76,1.04-1.2c6.25-10.48,12.43-21.01,18.75-31.45c10.03-16.59,20.12-33.14,31.18-49.07
		c3.44-4.95,7.56-9.06,12.66-12.25c8.86-5.54,18.35-9.8,27.92-13.89C947.31,555.34,947.8,555.4,948.24,555.36z"/>
	<path class="st2" d="M1172.93,576.38c-0.96,5.74-1.89,11.49-2.88,17.22c-1.72,10.07-3.46,20.13-5.2,30.2
		c-1.68,9.71-3.36,19.42-5.04,29.14c-1.74,10.07-3.47,20.13-5.21,30.2c-1.68,9.71-3.36,19.41-5.04,29.12
		c-1.92,11.13-3.83,22.25-5.76,33.38c-0.32,1.85-0.71,3.7-1.06,5.54c-7.17-0.02-14.34-0.06-21.51-0.06
		c-19.36,0-38.72,0.01-58.08,0.01c-0.8,0-1.61-0.07-2.41-0.11c9.61-12.57,18.13-25.88,25.99-39.57
		c9.79-17.04,19.41-34.19,28.76-51.47c8.07-14.92,15.67-30.1,23.45-45.17c1.7-3.3,1.72-3.38-1.18-5.86
		c-7.56-6.48-15.17-12.91-22.76-19.35c-1.84-1.56-1.9-1.6-0.69-3.78c4.62-8.31,9.31-16.59,13.9-24.92c0.85-1.54,1.36-3.26,2.03-4.89
		c8.18,2.93,16.33,5.93,24.55,8.75c4.98,1.71,9.58,4.01,13.55,7.49C1169.91,573.6,1171.41,575,1172.93,576.38z"/>
	<path class="st2" d="M1113.42,549.43c3.83,2.61,7.67,5.22,11.68,7.95c-0.77,1.39-1.46,2.62-2.15,3.86
		c-4.41,7.92-8.83,15.84-13.24,23.76c-0.31,0.55-0.62,1.1-0.89,1.66c-0.99,2.03-0.91,2.71,0.84,4.21c3.81,3.28,7.67,6.5,11.51,9.74
		c4.04,3.42,8.1,6.82,12.12,10.26c1.9,1.63,1.93,1.71,0.83,3.84c-6.34,12.29-12.67,24.58-19.09,36.83
		c-4.13,7.87-8.34,15.7-12.62,23.49c-11.77,21.4-23.8,42.66-37.6,62.84c-2.13,3.11-4.36,6.15-6.64,9.16
		c-0.97,1.29-1.32,2.51-0.42,3.93c-1.49,0.05-2.99,0.11-4.48,0.16c1.34-5.02,2.75-10.02,4.01-15.06
		c4.16-16.7,8.41-33.37,12.36-50.12c3.68-15.61,6.69-31.37,9.04-47.24c1.48-10.01,2.99-20.03,4.11-30.08
		c0.9-8.1,1.41-16.26,1.79-24.4c0.37-7.88,0.59-15.79,0.42-23.68c-0.14-6.62-0.92-13.22-1.42-19.84c-0.04-0.53-0.02-1.07-0.03-1.61
		c6.65,2.36,13.3,4.75,19.97,7.07C1106.79,547.33,1110.11,548.35,1113.42,549.43z"/>
	<path class="st3" d="M1029.1,751.2c-3.83-14.4-7.67-28.79-11.45-43.2c-0.23-0.88-0.07-1.9,0.05-2.83c0.51-4.01,1.09-8,1.61-12
		c1.03-7.92,2.04-15.84,3.04-23.76c0.97-7.66,1.92-15.31,2.9-22.97c1-7.83,2.01-15.66,3.01-23.5c0.97-7.66,1.94-15.31,2.9-22.97
		c0.78-6.23,1.45-12.48,2.37-18.69c0.26-1.78-0.08-3.39-0.42-5.03c-1.04-5.1-2.18-10.18-3.2-15.28c-0.14-0.71-0.12-1.7,0.27-2.23
		c2.54-3.48,5.19-6.88,7.82-10.29c0.1-0.13,0.31-0.16,0.7-0.36c2.67,3.53,5.42,7.06,8.04,10.69c0.38,0.53,0.36,1.52,0.22,2.24
		c-0.93,4.75-1.8,9.53-2.99,14.22c-0.77,3.05-0.69,6-0.28,9.04c1.45,10.76,2.84,21.53,4.26,32.29c1.54,11.65,3.13,23.3,4.66,34.95
		c1.34,10.23,2.6,20.47,3.96,30.7c0.99,7.47,2.1,14.92,3.11,22.38c0.1,0.77,0.02,1.62-0.18,2.37c-3.89,14.75-7.81,29.49-11.72,44.24
		C1041.56,751.2,1035.33,751.2,1029.1,751.2z"/>
	<path class="st2" d="M1147.53,751.04c0.64-4.07,1.24-8.15,1.93-12.21c1.89-11.13,3.83-22.26,5.74-33.39
		c0.73-4.24,1.42-8.49,2.21-12.72c0.16-0.84,0.54-1.76,1.1-2.38c9.9-10.86,15.84-23.87,20.31-37.64c1.63-5.03,2.84-10.19,4.19-15.31
		c0.23-0.85,0.35-1.81,0.2-2.66c-0.1-0.58-0.66-1.28-1.2-1.53c-0.82-0.39-1.59,0.08-1.98,0.9c-0.26,0.56-0.41,1.18-0.54,1.79
		c-2.77,13.07-6.97,25.63-13.41,37.37c-1.42,2.59-3.07,5.07-4.66,7.56c-0.41,0.64-1.01,1.15-1.8,1.62
		c0.95-8.73,2.62-17.28,4.09-25.87c1.48-8.66,2.94-17.32,4.43-25.98c1.49-8.66,2.98-17.32,4.49-25.97c1.5-8.6,3.01-17.2,4.52-25.8
		c0.19,0,0.38,0,0.57-0.01c0.39,0.99,0.79,1.96,1.15,2.96c3.7,10.34,6.27,20.98,8.07,31.78c1.62,9.72,3.02,19.49,4.25,29.27
		c0.85,6.76,1.31,13.57,1.79,20.37c0.63,8.95,1.24,17.9,1.64,26.86c0.49,11.03,0.82,22.07,1.09,33.11
		c0.23,9.34,0.26,18.68,0.38,28.02c-4.47-0.03-8.94-0.08-13.41-0.09C1170.95,751.07,1159.24,751.06,1147.53,751.04z"/>
	<path class="st4" d="M959.33,233.08c-2.16,6.08-4.24,12.2-6.52,18.24c-1.39,3.7,0.27,5.65,4.25,4.82
		c18.08-3.74,35.16-10.06,51.35-18.88c14.42-7.86,27.7-17.32,39.98-28.21c0.78-0.69,1.6-1.35,2.4-2.03
		c0.18,0.11,0.37,0.22,0.55,0.33c-0.29,0.87-0.57,1.74-0.87,2.61c-2.64,7.54-5.28,15.08-7.92,22.62c-0.24,0.68-0.45,1.37-0.6,2.07
		c-0.52,2.53,0.61,3.92,3.18,3.53c16.94-2.57,33.48-6.49,48.66-14.84c5.62-3.09,10.78-6.81,15.25-11.44
		c0.3-0.31,0.64-0.58,1.17-1.07c0.38,1.5,0.7,2.76,1.02,4.02c3.29,12.73,8.99,24.4,15.72,35.6c5.61,9.34,11.83,18.27,18.9,26.53
		c5.3,6.19,8.54,13.27,10.35,21.04c0.89,3.82,1.44,7.8,1.48,11.72c0.17,14.92,0.44,29.85,0,44.75c-0.6,20.4-2.51,40.7-7.31,60.62
		c-2.08,8.65-4.67,17.13-8.62,25.14c-2.8,5.69-6.31,10.84-10.71,15.43c-13.2,13.78-27.78,25.77-44.82,34.57
		c-9.69,5.01-19.83,8.84-30.47,11.27c-9.76,2.23-19.62,2.15-29.46,0.68c-18.67-2.79-35.31-10.59-50.8-21.06
		c-11.6-7.83-21.94-17.14-31.4-27.43c-6.26-6.81-10.12-15-13.17-23.6c-3.96-11.2-6.41-22.77-8.14-34.51
		c-3.89-26.41-4.61-53-3.64-79.61c0.7-19.07,4.71-37.58,12.89-54.99c3.46-7.37,7.87-14.13,13.8-19.78
		c3.79-3.61,7.93-6.74,12.92-8.56C958.97,232.8,959.15,232.94,959.33,233.08z M1118.06,340.63c3.12,0.59,4.57-0.36,4.47-3.13
		c-0.26-6.52-1.46-12.85-4.75-18.57c-4.63-8.05-11.52-12.77-20.93-12.93c-10.42-0.18-18.52,4.23-23.84,13.32
		c-1.63,2.78-1.08,4.07,1.92,5.38c-0.14,0.7-0.19,1.42-0.42,2.09c-2.17,6.43-2.45,13-1.25,19.62c1.23,6.81,4.17,12.79,9.41,17.41
		c4.86,4.28,10.5,5.97,16.95,4.49c5.38-1.23,9.29-4.55,12.43-8.82C1116.15,353.91,1118.13,347.58,1118.06,340.63z M957.7,340.88
		c0.96,7.38,2.77,14.44,7.72,20.3c3.29,3.9,7.37,6.69,12.41,7.46c6.31,0.96,11.91-1,16.5-5.44c5.97-5.77,8.56-13.12,9.3-21.18
		c0.55-5.97-0.41-11.79-2.66-17.37c3.17-0.87,3.85-2.27,2.45-5.05c-0.2-0.4-0.43-0.79-0.66-1.17c-5.52-9.28-17.33-14.34-27.87-11.95
		c-8.32,1.89-13.95,7.05-17.53,14.61c-2.42,5.11-3.36,10.59-3.67,16.18C953.54,339.97,954.65,340.89,957.7,340.88z M1038.85,457.11
		c9.76,0,19.62-2.1,28.21-6.06c14.39-6.64,25.22-17.26,33.84-30.35c0.15-0.22,0.3-0.45,0.42-0.69c0.71-1.5,0.37-2.92-0.91-3.79
		c-1.27-0.87-2.72-0.67-3.85,0.6c-0.53,0.6-0.94,1.31-1.39,1.98c-4,5.9-8.58,11.3-13.92,16.03c-20.16,17.89-48.2,21.56-71.44,9.27
		c-11.3-5.97-20.03-14.76-27.17-25.23c-0.51-0.74-0.96-1.53-1.56-2.19c-1.06-1.15-2.43-1.29-3.65-0.51
		c-1.18,0.76-1.66,2.16-1.12,3.54c0.23,0.58,0.62,1.09,0.96,1.61c3.93,5.94,8.43,11.41,13.64,16.28
		C1004.4,450.23,1020.3,456.94,1038.85,457.11z M973.75,259.79c-1.26,0.07-2.25,0.05-3.22,0.18c-13.21,1.78-23.97,12.07-26.39,25.22
		c-0.43,2.32-0.51,4.65,0.3,6.91c0.86,2.41,2.23,2.71,3.86,0.78c1.33-1.57,2.45-3.32,3.68-4.97c3.18-4.28,6.74-8.15,11.3-11.03
		c5.43-3.42,11.26-4.26,17.26-2.19c3.7,1.27,7.21,3.15,10.71,4.94c2.95,1.51,5.74,3.33,8.66,4.9c1.15,0.62,2.59,1.47,3.77,0.44
		c1.26-1.1,0.59-2.65,0.12-4c-1.11-3.19-3-5.92-5.18-8.44C991.99,264.86,983.84,260.14,973.75,259.79z M1133.29,288.72
		c-0.23-1.72-0.32-2.98-0.58-4.2c-1.71-8.1-6.08-14.51-12.74-19.3c-6.23-4.48-13.21-6.26-20.87-4.99
		c-8.26,1.36-14.82,5.65-20.28,11.79c-2.39,2.69-4.47,5.62-5.66,9.08c-0.44,1.27-1.08,2.71,0.07,3.79c1.18,1.11,2.59,0.31,3.75-0.31
		c2.69-1.43,5.25-3.11,7.96-4.49c3.74-1.91,7.46-3.96,11.4-5.36c6.19-2.2,12.23-1.33,17.71,2.39c2.07,1.4,4.1,2.96,5.79,4.78
		c2.49,2.69,4.67,5.67,6.98,8.53c0.79,0.98,1.46,2.06,2.34,2.94c1.22,1.22,2.28,1.11,2.96-0.44
		C1132.76,291.48,1132.99,289.87,1133.29,288.72z M953.78,374.51c-3.68,0.53-8.57,1.03-13.37,2.01c-2.95,0.6-5.88,1.67-8.27,3.68
		c-2.99,2.51-3.06,4.97,0.09,7.27c1.78,1.3,3.89,2.24,5.99,2.96c5.72,1.96,11.72,2.32,17.7,2.53c1.59,0.05,3.19-0.37,4.79-0.46
		c5.05-0.29,9.93-1.3,14.52-3.43c1.27-0.59,2.41-1.57,3.4-2.58c1.76-1.8,1.73-3.34,0.11-5.22c-1.37-1.6-3.09-2.64-5.07-3.41
		C967.66,375.5,961.34,375.09,953.78,374.51z M1124.14,374.58c-1.42,0.17-3.28,0.59-5.14,0.56c-3.82-0.06-7.46,0.87-11.04,1.94
		c-2.28,0.69-4.54,1.77-6.47,3.15c-2.73,1.96-2.54,5.33,0.12,7.26c0.87,0.63,1.79,1.21,2.76,1.66c6.89,3.23,14.31,3.75,21.72,3.71
		c3.88-0.02,7.81-0.75,11.63-1.55c3.65-0.76,7.35-1.65,10.07-4.62c2.09-2.29,2.01-4.85-0.62-6.54c-1.94-1.24-4.04-2.36-6.22-3.08
		C1135.66,375.34,1130.11,375.06,1124.14,374.58z M1035.15,375.81c-0.05-0.32-0.13-0.58-0.13-0.84c-0.25-8.2-1.77-16.23-3.34-24.24
		c-0.42-2.16-1.63-3.22-3.15-2.91c-1.6,0.32-2.27,1.69-1.87,3.81c0.33,1.76,0.78,3.51,1,5.29c0.82,6.41,1.56,12.82,2.33,19.23
		c0.21,1.77-0.42,2.91-2.01,3.96c-2.14,1.42-4.14,3.17-5.85,5.09c-2.02,2.25-2.61,4.99-1.78,8.05c1.38,5.08,3.68,9.72,6.4,14.18
		c1.36,2.23,2.59,2.78,4.05,1.94c1.57-0.89,1.67-2.33,0.28-4.63c-2.18-3.62-4.02-7.39-5.42-11.4c-0.95-2.7-0.39-4.87,1.78-6.44
		c2.67-1.93,5.56-3.58,8.37-5.32c0.68-0.42,1.6-0.57,2.12-1.12c0.56-0.59,1.04-1.5,1.07-2.29c0.05-1.03-0.69-1.85-1.76-2.12
		C1036.57,375.88,1035.86,375.88,1035.15,375.81z"/>
	<path d="M1192.04,211.25c2.57,7.27,4.56,14.69,5.74,22.31c0.75,4.86,1.65,9.72,2,14.61c0.46,6.44,0.79,12.92,0.55,19.36
		c-0.33,8.57-1.1,17.14-2.59,25.62c-0.2,1.14-0.47,2.27-0.8,3.85c-0.43-0.79-0.75-1.25-0.93-1.75c-1.6-4.38-3.17-8.77-4.76-13.15
		c-0.82-2.26-1.92-3.04-3.43-2.49c-1.79,0.65-2.29,1.91-1.51,4.17c1.08,3.14,2.27,6.24,3.33,9.38c0.3,0.9,0.54,1.93,0.42,2.86
		c-0.85,6.93-2.21,13.77-4.05,20.52c-1.84,6.76-4.08,13.36-6.72,19.86c-0.69,1.7-1.74,2.23-3.29,2.64
		c-2.84,0.76-5.67,1.59-8.43,2.59c-1.38,0.5-2.58,1.46-4.33,2.48c0-1.39,0-2.34,0-3.29c-0.01-8.54,0.24-17.09-0.13-25.61
		c-0.28-6.41-0.06-12.9-1.98-19.18c-2-6.55-4.14-13.03-8.27-18.58c-2.94-3.95-6.19-7.67-9.18-11.59
		c-8.36-10.94-15.6-22.59-21.34-35.12c-3.44-7.52-6.04-15.33-7.46-23.51c-0.25-1.44,0.1-2.62,0.78-3.84
		c2.17-3.95,4.11-8.03,4.63-12.55c0.35-3.01,0.35-6.08,0.31-9.12c-0.02-1.59-1.23-2.43-2.72-2.29c-1.54,0.14-2.79,1.41-2.47,2.93
		c0.95,4.52-0.22,8.75-1.73,12.86c-2.19,5.99-5.86,10.99-10.65,15.27c-8.19,7.33-17.8,11.99-28.1,15.38
		c-4.42,1.45-8.92,2.65-13.4,3.92c-0.76,0.21-1.58,0.19-2.37,0.27c0.56-3.42,0.96-6.88,1.71-10.26c2.13-9.61,4.92-19.02,9.6-27.74
		c1.64-3.05,3.63-5.92,5.46-8.87c0.07-0.03,0.14-0.05,0.19-0.09c0.03-0.03,0.02-0.1,0.03-0.15c-0.07,0.08-0.14,0.17-0.21,0.25
		c-0.98,0.35-2.04,0.57-2.92,1.09c-1.45,0.86-2.79,1.92-4.18,2.9c-0.14-0.23-0.26-0.47-0.41-0.69c-1.48-2.1-2.83-2.35-4.59-0.58
		c-1.83,1.84-3.43,3.9-5.21,5.79c-2.82,3.01-5.57,6.1-8.58,8.91c-3.93,3.67-7.97,7.22-12.15,10.6
		c-9.22,7.44-18.91,14.19-29.26,20.01c-11.3,6.35-23.09,11.53-35.43,15.48c-0.25,0.08-0.53,0.08-0.79,0.12
		c1.92-4.72,3.66-9.53,5.78-14.16c5.54-12.09,12.14-23.56,20.65-33.85c3.65-4.42,7.44-8.71,11.94-12.33
		c1.58-1.27,3.07-2.64,4.59-3.97c-0.07-0.13-0.14-0.25-0.21-0.38c-1.43,0.39-2.87,0.79-4.3,1.18c-1.46-3.06-2.23-3.33-5.15-1.95
		c-10.98,5.2-20.08,12.75-27.9,21.99c-5.3,6.26-9.91,12.96-13.68,20.24c-0.67,1.29-1.55,2.05-2.94,2.49
		c-8.51,2.68-15.66,7.57-21.61,14.12c-5.71,6.29-10.02,13.54-13.46,21.31c-4.56,10.31-7.54,21.1-9.53,32.15
		c-1.14,6.33-1.98,12.75-2.31,19.17c-0.49,9.68-0.41,19.38-0.58,29.08c-0.01,0.53-0.06,1.05-0.11,2c-5.46-3.32-11.07-5.5-17.54-5.43
		c-1.25-4.2-2.64-8.26-3.66-12.42c-1.5-6.09-2.69-12.25-2.51-18.59c0.04-1.48,0.25-2.79,1.08-4.07c0.78-1.2,1.38-2.52,1.93-3.85
		c0.63-1.54,0.14-2.86-1.12-3.45c-1.36-0.63-2.82-0.16-3.61,1.31c-1.74,3.24-3.42,6.51-5.13,9.76c-0.24,0.46-0.52,0.89-1.04,1.78
		c-0.63-2.71-1.15-4.95-1.66-7.19c0.16-1.03,0.45-2.05,0.45-3.08c-0.03-9.51-0.12-19,1-28.48c0.79-6.68,1.78-13.3,3.34-19.83
		c3.55-14.89,9.21-28.85,18.28-41.29c6.13-8.4,13.2-15.81,22.24-21.17c0.63-0.37,1.06-1.15,1.49-1.8c0.43-0.67,0.72-1.44,1.12-2.14
		c5.14-8.96,12.48-15.95,20.43-22.29c10.85-8.64,22.7-15.7,35.39-21.33c8.7-3.87,17.63-7.07,26.83-9.51
		c8.66-2.29,17.41-4.13,26.35-4.91c6.32-0.55,12.65-1.19,18.99-1.46c7.44-0.32,14.86,0.24,22.27,0.9
		c6.51,0.58,12.99,1.26,19.37,2.73c1.83,0.42,3.66,0.79,5.5,1.18c1.82,0.71,3.64,1.42,5.47,2.12c2.75,1.78,5.65,3.36,8.21,5.37
		c6.41,5.03,11.41,11.25,14.89,18.65c0.42,0.89,0.9,1.77,1.15,2.71c0.52,2,1.79,2.98,3.77,3.17c0.6,3.77,1.2,7.55,1.8,11.34
		c7.71,2.17,15.04,4.95,21.92,8.88c11.46,6.54,21.11,15.04,28.6,25.95c0.65,0.94,1.43,1.8,2.14,2.69c0,0-0.02-0.03-0.02-0.03
		C1191.55,210.5,1191.79,210.88,1192.04,211.25z"/>
	<path class="st5" d="M818.7,581.96c0.75,3.14,1.45,6.29,2.27,9.41c0.66,2.51,1.32,5.05,2.29,7.46c0.69,1.7,0.29,2.86-0.77,4.14
		c-4.65,5.62-10.5,9.48-17.27,12.02c-3.36,1.26-6.82,2.11-10.41,2.24c-2.3-8.97-4.57-17.81-6.87-26.78c0.49,0,1.24,0,1.99,0
		c1.74,0,2.76-0.71,2.97-2.08c0.23-1.5-0.59-2.46-2.44-2.93c-5.03-1.29-10.17-2.29-15.07-3.98c-16.42-5.64-30.93-14.69-44.23-25.73
		c-4.01-3.32-7.74-6.98-11.65-10.42c-1.27-1.11-2.64-2.16-4.11-2.98c-13.08-7.33-26.2-14.6-39.28-21.91
		c-1.46-0.82-2.82-1.82-4.29-2.78c2.35-2.15,5.94-3.09,8.9-2.45c11.02,2.36,21.12,6.91,30.59,12.93c1.67,1.06,3.26,2.23,4.9,3.33
		c0.52,0.35,1.04,0.73,1.61,0.97c1.17,0.48,2.11,0.02,2.83-0.91c0.67-0.87,0.75-1.86,0.09-2.75c-0.42-0.56-0.99-1.04-1.56-1.45
		c-11.52-8.24-24.04-14.3-37.97-17.23c-2.18-0.46-5.38-3.85-5.66-5.97c-0.19-1.43,0.9-2.9,2.73-3.1c1.76-0.2,3.59-0.12,5.35,0.13
		c7.14,0.99,14.05,2.95,20.82,5.37c10.87,3.88,21.12,9.03,30.8,15.3c0.51,0.33,0.99,0.7,1.76,1.24c-0.78,0.48-1.34,0.85-1.92,1.19
		c-5.13,2.99-10,6.37-14.52,10.23c-0.48,0.41-0.99,0.79-1.4,1.26c-0.95,1.1-0.95,2.45-0.07,3.42c0.81,0.9,2.05,1.11,3.19,0.46
		c0.54-0.31,1-0.76,1.48-1.16c13.5-11.42,29.05-18.36,46.45-21.21c2.74-0.45,5.52-0.59,8.01-0.84c2.74,3.21,5.26,6.24,7.87,9.17
		c0.79,0.88,0.44,1.67,0.21,2.49c-1.28,4.51-2.1,9.09-2.23,13.79c-0.12,4.34,0.26,8.61,1.78,12.73c1.3,3.52,3.27,6.59,6.12,9.05
		c0.53,0.45,1.21,1,1.82,1c0.8,0,1.95-0.28,2.32-0.85c0.45-0.69,0.34-1.81,0.29-2.74c-0.02-0.35-0.52-0.71-0.85-1
		c-4.6-4.02-6.15-9.35-6.41-15.19c-0.27-5.9,0.77-11.65,2.66-17.21c0.71-2.08,0.51-3.57-1.27-4.96c-1.26-0.99-2.32-2.25-3.43-3.42
		c-6.01-6.34-7.94-13.9-6.56-22.39c0.2-1.22,0.57-2.47,1.13-3.57c0.86-1.73,1.86-1.96,3.5-0.93c0.98,0.62,1.97,1.32,2.72,2.19
		c1.94,2.23,3.87,4.49,5.58,6.9c6.03,8.49,12.09,16.97,17.91,25.61c7.64,11.36,11.27,23.79,9.01,37.55
		c-0.8,4.85-2.82,9.24-5.58,13.3c-0.4,0.59-0.89,1.14-1.23,1.77c-0.62,1.13-0.59,2.25,0.36,3.21c0.89,0.89,2.2,0.9,3.41-0.01
		c0.34-0.25,0.5-0.74,0.75-1.11C818.31,581.81,818.51,581.88,818.7,581.96z"/>
	<path d="M1103.36,129.28c-1.83-0.39-3.67-0.76-5.5-1.18c-6.38-1.47-12.86-2.15-19.37-2.73c-7.42-0.66-14.84-1.22-22.27-0.9
		c-6.34,0.28-12.66,0.91-18.99,1.46c-8.94,0.78-17.69,2.61-26.35,4.91c-9.2,2.43-18.13,5.64-26.83,9.51
		c-12.69,5.64-24.54,12.69-35.39,21.33c-7.95,6.33-15.3,13.32-20.43,22.29c-0.4,0.7-0.68,1.47-1.12,2.14
		c-0.42,0.65-0.85,1.43-1.49,1.8c-9.04,5.35-16.11,12.77-22.24,21.17c-9.07,12.44-14.73,26.4-18.28,41.29
		c-1.56,6.53-2.55,13.16-3.34,19.83c-1.12,9.48-1.03,18.98-1,28.48c0,1.03-0.29,2.05-0.45,3.08c-1.02-6.56-2.22-13.1-3.02-19.69
		c-1.31-10.81-1.56-21.66-0.48-32.53c0.95-9.63,2.96-18.99,6.71-27.91c4.46-10.63,10.85-19.87,20.27-26.72
		c2.74-1.99,5.8-3.56,8.79-5.18c1.17-0.63,2.23-1.13,2.27-2.66c0.04-1.7-1.11-2.29-2.44-2.8c-5.1-1.97-9.62-4.83-13.35-8.87
		c-3.96-4.29-6.34-9.3-6.83-15.52c1.25,0.07,2.38,0.08,3.51,0.19c16.69,1.65,32.72-1.08,48.28-7.13c7.57-2.94,14.45-7.2,21.59-10.98
		c18.4-9.74,37.87-16.32,58.39-19.8c11.19-1.9,22.45-2.9,33.79-2.5c13.49,0.47,26.87,1.82,39.71,6.39c2.19,0.78,4.28,1.82,6.42,2.74
		C1103.75,128.94,1103.55,129.11,1103.36,129.28z"/>
	<path class="st6" d="M1029.04,579.09c-0.02,1.06,0.07,2.14-0.06,3.19c-1.33,10.6-2.71,21.19-4.06,31.79
		c-1.34,10.51-2.65,21.02-3.99,31.53c-1.36,10.69-2.73,21.37-4.08,32.06c-0.69,5.43-1.37,10.86-2.12,16.89
		c-0.4-0.99-0.68-1.47-0.8-1.98c-4.64-20.02-8.63-40.18-11.67-60.51c-3.25-21.69-5.41-43.48-5.45-65.45c0-0.44,0-0.88,0.27-1.4
		c0.23,0.72,0.5,1.43,0.7,2.16c1.69,6.23,3.36,12.47,5.04,18.7c0.16,0.6,0.34,1.21,0.59,1.79c0.85,1.96,2.6,2.29,4,0.69
		c1.47-1.69,2.81-3.48,4.21-5.23C1017.43,581.91,1023.23,580.5,1029.04,579.09z"/>
	<path class="st6" d="M1065.25,583.35c1.29,1.6,2.61,3.18,3.88,4.8c0.71,0.9,1.47,1.57,2.72,1.31c1.16-0.24,1.55-1.18,1.81-2.13
		c1.86-6.83,3.69-13.68,5.53-20.51c0.11-0.4,0.24-0.8,0.62-1.16c0.08,43.18-7.5,85.32-17.29,127.27c-0.19-1.05-0.39-2.1-0.55-3.15
		c-0.18-1.15-0.32-2.31-0.47-3.47c-2.04-15.75-4.07-31.51-6.13-47.26c-2.06-15.75-4.18-31.49-6.25-47.25
		c-0.54-4.09-0.95-8.19-1.43-12.29c0.88,0.1,1.78,0.11,2.63,0.33c3.6,0.91,7.17,1.92,10.77,2.82
		C1062.45,583,1063.86,583.13,1065.25,583.35z"/>
	<path class="st7" d="M948.24,555.36c-0.44,0.04-0.93-0.02-1.32,0.14c-9.57,4.1-19.06,8.36-27.92,13.89
		c-5.1,3.19-9.22,7.3-12.66,12.25c-11.06,15.94-21.16,32.48-31.18,49.07c-6.31,10.44-12.49,20.97-18.75,31.45
		c-0.27,0.45-0.69,0.8-1.04,1.2c-0.67-3.97-1.4-7.94-1.97-11.93c-0.1-0.7,0.27-1.58,0.66-2.24c14.36-24.15,28.72-48.29,44.14-71.79
		c5.62-8.56,13.19-14.54,21.91-19.42c12.87-7.2,26.41-12.94,40.12-18.27c5.68-2.21,11.42-4.28,17.13-6.41
		c-0.02,0.32-0.04,0.64-0.06,0.96c-7.92,5.81-15.84,11.63-23.78,17.43C951.8,552.97,950,554.15,948.24,555.36z"/>
	<path class="st8" d="M918.39,400.57c0.98,5.1,1.97,10.2,2.97,15.41c-2.25,0.52-4.32-0.17-6.37-0.64c-7.4-1.7-13.61-5.56-18.7-11.09
		c-10.22-11.12-15.29-24.36-15.35-39.42c-0.01-3.35,0.65-6.82,1.66-10.03c2.54-8.02,8.58-11.79,16.93-10.87
		c4.76,0.53,8.96,2.47,12.52,5.71c1.38,1.26,2.18,2.69,2.14,4.7c-0.05,3.27,0.19,6.54-0.08,10.07c-0.56-0.66-1.09-1.35-1.68-1.98
		c-2.21-2.39-4.63-4.51-7.59-5.93c-5.48-2.62-10.62-1.96-15.38,1.74c-0.67,0.52-1.4,1.32-1.52,2.08c-0.12,0.73,0.3,1.85,0.87,2.31
		c0.57,0.46,1.63,0.45,2.46,0.41c0.46-0.02,0.9-0.54,1.34-0.84c4.3-2.96,7.47-2.94,11.86,0.09c-0.44,0.3-0.84,0.67-1.32,0.88
		c-2.84,1.29-4.73,3.45-6.05,6.23c-1.41,2.96-1.34,6.09-1.29,9.23c0.13,7.61,3.22,13.89,8.75,18.97c2.88,2.65,6.38,3.98,10.39,3.49
		C916.11,400.96,917.25,400.75,918.39,400.57z"/>
	<path class="st8" d="M1172.45,362.34c4.24-3.31,8.6-2.76,11.87-0.17c0.21,0.17,0.42,0.34,0.64,0.49c1.45,0.92,2.69,0.82,3.61-0.26
		c0.96-1.13,0.8-2.63-0.57-3.77c-4.34-3.62-9.19-4.73-14.56-2.67c-3.42,1.31-6.17,3.61-8.67,6.25c-0.59,0.62-1.2,1.21-2.23,2.23
		c0-1.05-0.01-1.54,0-2.02c0.08-2.42,0.34-4.86,0.21-7.27c-0.16-2.85,1.1-4.79,3.22-6.41c4.2-3.19,8.88-4.99,14.21-4.95
		c5.74,0.05,9.91,2.71,12.74,7.6c2.03,3.5,2.98,7.38,3.06,11.34c0.38,17.95-5.68,33.25-19.29,45.22c-5.18,4.55-11.37,7.12-18.19,8.1
		c-0.87,0.12-1.76,0.1-2.93,0.16c1.04-5.45,2.04-10.69,3.04-15.93c6.05,2.14,11.11,0.41,15.28-4.16c5.65-6.18,8.25-13.43,7.2-21.86
		c-0.65-5.24-2.88-9.35-8.03-11.42C1172.83,362.74,1172.66,362.51,1172.45,362.34z"/>
	<path class="st9" d="M1065.11,516.24c1.16,0.95,2.01,1.56,2.76,2.27c5.76,5.35,8.61,12.17,10.23,19.72
		c1.09,5.09,0.06,10.02-0.71,14.95c-1.46,9.4-3.68,18.64-6.36,27.76c-0.12,0.42-0.31,0.82-0.63,1.65
		c-9.48-12.49-18.76-24.72-28.16-37.11c5.6-2.43,10.24-5.72,14.23-9.92c2.98-3.14,5.54-6.58,7.71-10.33
		c1.02-1.76,1.76-3.48,1.14-5.59C1065.05,518.74,1065.18,517.73,1065.11,516.24z"/>
	<path class="st6" d="M1010.67,517.49c0,0.77,0.08,1.37-0.01,1.94c-0.45,2.57,0.45,4.7,1.84,6.8c5.36,8.09,11.98,14.74,20.96,18.77
		c0.3,0.14,0.58,0.32,1.08,0.6c-9.36,12.33-18.61,24.52-28.14,37.09c-0.59-1.92-1.08-3.43-1.5-4.96
		c-2.87-10.48-5.51-21.05-6.36-31.88c-0.86-10.97,3.06-20.4,11.18-27.97C1009.88,517.72,1010.16,517.69,1010.67,517.49z"/>
	<path d="M1010.85,183.32c1.43-0.39,2.87-0.79,4.3-1.18c0.07,0.13,0.14,0.25,0.21,0.38c-1.53,1.33-3.02,2.7-4.59,3.97
		c-4.49,3.62-8.28,7.91-11.94,12.33c-8.5,10.29-15.11,21.76-20.65,33.85c-2.12,4.63-3.86,9.43-5.78,14.16
		c-4.42,1.69-9.04,2.59-13.94,3.75c0.27-1.04,0.41-1.72,0.63-2.37c5.04-15.02,12.09-28.95,22.32-41.15
		c7.35-8.77,15.96-15.99,26.32-20.96C1009.1,185.44,1010.09,184.56,1010.85,183.32z"/>
	<path class="st10" d="M792.74,636.11c-1.34-5.08-2.61-9.88-4-15.14c4.88,2.12,9.27,1.32,13.62,0.2c9.01-2.32,16.75-6.8,22.99-13.75
		c2.11-2.35,3.93-4.91,4.81-8.01c0.95-3.34,0.39-4.32-3.06-5.22c-0.23-0.78-0.49-1.62-0.74-2.48c3.09-0.53,4.19,0.12,4.76,2.8
		c1.17,5.44,2.25,10.9,3.51,16.31c0.38,1.62,0.28,3.08-0.57,4.38c-1.27,1.94-2.52,3.97-4.15,5.6c-8.38,8.36-18.38,13.68-30.19,15.25
		C797.53,636.36,795.27,636.11,792.74,636.11z"/>
	<path class="st11" d="M1017.67,524.62c-1.58-1.75-2.17-3.67-1.89-6.13c0.37-3.29,0.24-6.64,0.32-9.96c0.02-0.88,0-1.77,0-2.99
		c14.46,3.18,28.66,4,43.24,0.49c0.15,3.35,0.28,6.37,0.41,9.39c-0.66,0.26-1.39,0.41-1.96,0.79c-4.51,3.01-9.35,5.22-14.57,6.7
		c-7.51,2.12-15.1,2.31-22.78,1.31C1019.54,524.12,1018.59,524.48,1017.67,524.62z"/>
	<path class="st11" d="M1172.45,362.34c0.2,0.17,0.38,0.41,0.61,0.5c5.15,2.07,7.38,6.17,8.03,11.42c1.04,8.43-1.56,15.68-7.2,21.86
		c-4.17,4.57-9.22,6.3-15.28,4.16c0.97-7.72,1.93-15.45,2.91-23.17c0.09-0.7,0.11-1.48,0.43-2.07
		C1164.67,370.15,1167.74,365.56,1172.45,362.34z"/>
	<path class="st11" d="M918.39,400.57c-1.14,0.18-2.28,0.39-3.43,0.53c-4.01,0.49-7.5-0.84-10.39-3.49
		c-5.52-5.08-8.62-11.36-8.75-18.97c-0.05-3.14-0.12-6.27,1.29-9.23c1.32-2.78,3.21-4.94,6.05-6.23c0.48-0.22,0.88-0.59,1.32-0.88
		c4.71,3.23,7.9,7.77,10.51,12.72c0.6,1.13,0.56,2.61,0.73,3.94C916.63,386.16,917.51,393.36,918.39,400.57z"/>
	<path class="st12" d="M769.06,512.03c-4.08,0.99-7.83,1.85-11.56,2.82c-1.19,0.31-1.82-0.34-2.56-1.02
		c-8.35-7.64-17.77-13.65-28.03-18.36c-6.37-2.92-12.93-5.33-19.72-7.08c-0.76-0.2-1.51-0.47-2.34-0.73
		c0.24-2.06,1.41-3.08,3.22-3.56c3.41-0.92,6.78-0.38,10.13,0.32c6.18,1.29,12.01,3.63,17.68,6.35
		c11.54,5.53,22.19,12.49,32.25,20.38C768.39,511.36,768.62,511.62,769.06,512.03z"/>
	<path class="st12" d="M686.07,496.26c0.82-3.03,2.99-4.22,5.55-4.48c2.38-0.24,4.88-0.26,7.23,0.15
		c17.77,3.08,33.62,10.5,47.83,21.53c1.27,0.98,2.45,2.07,4.02,3.4c-2.94,1.26-5.58,2.38-8.29,3.54
		C725.22,508.68,706.7,500.19,686.07,496.26z"/>
	<path class="st13" d="M1017.67,524.62c0.92-0.14,1.87-0.51,2.76-0.39c7.68,1,15.27,0.81,22.78-1.31c5.22-1.48,10.07-3.69,14.57-6.7
		c0.57-0.38,1.3-0.53,1.96-0.79c0.03,0.18,0.07,0.35,0.09,0.53c0.69,6.23,0.7,6.25-3.09,11.36c-4.14,5.57-9.12,10.11-15.51,13.03
		c-1.95,0.9-3.62,0.96-5.6,0.05C1028.05,536.94,1022.24,531.51,1017.67,524.62z"/>
	<path d="M1191.32,210.16c-0.72-0.9-1.5-1.75-2.14-2.69c-7.49-10.9-17.14-19.41-28.6-25.95c-6.89-3.93-14.22-6.71-21.92-8.88
		c-0.6-3.79-1.2-7.57-1.8-11.34c11.66,2.41,21.96,7.67,31.19,15.08c10.31,8.28,17.66,18.75,22.61,30.96
		C1191,208.23,1191.1,209.22,1191.32,210.16z"/>
	<path class="st7" d="M1172.93,576.38c-1.52-1.38-3.02-2.79-4.57-4.14c-3.97-3.48-8.56-5.79-13.55-7.49
		c-8.22-2.82-16.37-5.82-24.55-8.75c-0.82-0.69-1.6-1.44-2.47-2.05c-6.33-4.4-12.68-8.78-19.02-13.17
		c-0.73-0.51-1.42-1.08-2.12-1.62c0.25-0.2,0.49-0.41,0.74-0.61c1.85,0.67,3.71,1.31,5.55,2.01c15.08,5.74,30.16,11.49,45.25,17.24
		c0.5,0.19,1,0.43,1.52,0.53c6.15,1.21,9.96,5.35,13.11,10.37c0.85,1.35,1.39,2.64,0.82,4.28
		C1173.27,574.06,1173.16,575.24,1172.93,576.38z"/>
	<path d="M1075.92,183.18c-1.83,2.95-3.82,5.82-5.46,8.87c-4.69,8.72-7.47,18.13-9.6,27.74c-0.75,3.38-1.15,6.84-1.71,10.26
		c-3.4,1.48-7.02,1.74-10.82,2.33c0.1-0.84,0.08-1.38,0.24-1.86c3.43-10.41,7.05-20.74,11.87-30.6c1.67-3.41,3.63-6.59,6.22-9.39
		c0.89-0.96,1.45-2.23,2.16-3.35c1.39-0.98,2.73-2.04,4.18-2.9C1073.89,183.76,1074.95,183.54,1075.92,183.18
		C1075.93,183.19,1075.92,183.18,1075.92,183.18z"/>
	<path class="st7" d="M1113.42,549.43c-3.3-1.08-6.63-2.1-9.91-3.25c-6.67-2.32-13.31-4.71-19.97-7.07
		c-0.93-3.6-1.86-7.21-2.92-11.36c1.89,0.87,3.51,1.35,4.84,2.27C1094.81,536.44,1104.11,542.95,1113.42,549.43z"/>
	<path class="st7" d="M993.3,539.04c-6.29,2.03-12.58,4.07-18.88,6.08c-2.37,0.76-4.77,1.43-7.16,2.15c0.9-0.73,1.77-1.5,2.7-2.19
		c7.3-5.37,14.6-10.76,21.95-16.06c1.33-0.96,2.91-1.59,4.83-2.61C995.48,531.02,994.39,535.03,993.3,539.04z"/>
	<path class="st14" d="M1065.25,583.35c-1.39-0.22-2.8-0.35-4.15-0.69c-3.6-0.9-7.17-1.91-10.77-2.82
		c-0.85-0.22-1.75-0.22-2.63-0.33c0.91-4.47,1.81-8.93,2.72-13.4c0.1-0.48,0.23-0.96,0.42-1.78c0.59,0.64,0.96,0.98,1.27,1.38
		c4.23,5.56,8.45,11.12,12.66,16.69C1064.98,582.69,1065.09,583.04,1065.25,583.35z"/>
	<path class="st14" d="M1029.04,579.09c-5.81,1.41-11.62,2.82-17.42,4.22c2.17-2.95,4.33-5.92,6.53-8.86
		c2.47-3.29,4.97-6.56,7.5-9.89C1026.59,566.23,1028.71,575.4,1029.04,579.09z"/>
	<path class="st15" d="M1103.36,129.28c0.2-0.17,0.39-0.34,0.59-0.5c1.63,0.88,3.25,1.75,4.88,2.63
		C1107,130.7,1105.18,129.99,1103.36,129.28z"/>
	<path class="st14" d="M788.37,614.09c0.92,1.96,0.92,1.96-0.18,3.4C787.06,616.36,787.45,615.34,788.37,614.09z"/>
	<path class="st14" d="M1107.4,538.54c-0.25,0.2-0.49,0.41-0.74,0.61c-0.82-0.53-1.64-1.06-2.45-1.59c0.04-0.05,0.12-0.1,0.12-0.15
		c-0.01-0.11-0.05-0.22-0.08-0.32C1105.29,537.58,1106.35,538.06,1107.4,538.54z"/>
	<path class="st16" d="M977.3,534.28c0.02-0.32,0.04-0.64,0.06-0.96c0.42-0.16,0.85-0.33,1.27-0.49c0.07,0.13,0.15,0.27,0.22,0.4
		C978.34,533.58,977.82,533.93,977.3,534.28z"/>
	<path class="st17" d="M1103.44,537c0.27,0.03,0.54,0.06,0.8,0.09c0.03,0.11,0.08,0.21,0.08,0.32c0,0.05-0.08,0.1-0.12,0.15
		c-0.27-0.18-0.53-0.35-0.8-0.53L1103.44,537z"/>
	<path class="st15" d="M1192.04,211.25c-0.25-0.38-0.5-0.75-0.74-1.13C1191.55,210.5,1191.79,210.88,1192.04,211.25z"/>
	<path class="st0" d="M775.8,509.91c0.06,0.21,0.12,0.42,0.18,0.63c-0.2-0.06-0.4-0.13-0.59-0.19
		C775.52,510.2,775.66,510.06,775.8,509.91z"/>
	<path class="st17" d="M1103.4,537.04c-0.07-0.08-0.14-0.17-0.21-0.25c0.08,0.07,0.17,0.15,0.25,0.22
		C1103.44,537,1103.4,537.04,1103.4,537.04z"/>
	<path class="st4" d="M958.79,232.66c0.2-0.07,0.4-0.14,0.59-0.21c-0.02,0.21-0.04,0.42-0.06,0.63
		C959.15,232.94,958.97,232.8,958.79,232.66z"/>
	<path class="st4" d="M1051.57,206.65c-0.03,0.06-0.06,0.12-0.09,0.17c-0.08-0.06-0.16-0.13-0.25-0.19
		c0.06-0.06,0.12-0.11,0.18-0.17C1051.46,206.52,1051.51,206.59,1051.57,206.65z"/>
	<path class="st6" d="M1000.97,324.65c2.25,5.58,3.21,11.4,2.66,17.37c-0.74,8.06-3.33,15.41-9.3,21.18
		c-4.6,4.45-10.2,6.41-16.5,5.44c-5.04-0.77-9.12-3.56-12.41-7.46c-4.95-5.86-6.76-12.92-7.72-20.3c1.33-0.85,1.82-2.05,1.86-3.63
		c0.04-1.78,0.22-3.59,0.57-5.34c0.77-3.95,1.67-7.88,4.23-11.17c1.2-0.33,2.41-0.65,3.61-0.99c6.86-1.96,13.78-3.08,20.91-1.78
		c2.37,0.43,4.75,0.78,7.12,1.17c0.76,1.06,1.62,2.07,2.26,3.21C998.9,323.49,999.68,324.34,1000.97,324.65z M998.03,332.64
		c-1.96-4.27-4.44-7.53-8.66-9.1c-2.96-1.1-5.82-0.69-8.54,0.86c-2.41,1.37-4.19,3.38-5.54,5.75c-2.94,5.17-3.88,10.76-3.14,16.62
		c0.61,4.92,2.22,9.43,5.72,13.08c4.79,5,11.42,5.12,16.17,0.13c5.69-5.99,6.61-13.33,5.75-21.35c-3.04,2.27-4.68,2.53-6.5,1.18
		c-1.48-1.1-2.11-3.1-1.41-4.81C992.97,332.35,995.2,332.1,998.03,332.64z"/>
	<path class="st6" d="M1118.06,340.63c0.07,6.95-1.91,13.28-6.01,18.86c-3.14,4.27-7.05,7.6-12.43,8.82
		c-6.45,1.47-12.09-0.22-16.95-4.49c-5.25-4.62-8.18-10.6-9.41-17.41c-1.2-6.62-0.91-13.19,1.25-19.62
		c0.23-0.67,0.28-1.39,0.42-2.09c1.45-0.2,2.36-1.05,3.06-2.32c0.64-1.15,1.51-2.18,2.27-3.26c0.18-0.18,0.35-0.36,0.53-0.53l0,0
		c2.63-0.36,5.25-0.91,7.9-1.04c7.35-0.37,14.55,0.47,21.44,3.27c0.64,0.26,1.37,0.28,2.06,0.41c0.71,1.33,1.51,2.62,2.1,4
		c1.63,3.84,2.15,7.93,2.44,12.04C1116.82,338.57,1117.08,339.72,1118.06,340.63z M1103.86,338.44c-1.91,1.91-3.78,3-6.15,1.57
		c-1.6-0.97-2.39-2.87-1.81-4.66c0.95-2.94,3.34-3.23,6.29-2.75c-1.63-3.56-3.56-6.28-6.6-8.09c-3.65-2.17-7.33-2.1-10.94,0.1
		c-2.52,1.54-4.31,3.77-5.63,6.37c-3.01,5.91-3.6,12.13-2.2,18.57c0.85,3.93,2.47,7.49,5.31,10.4c4.82,4.94,11.44,4.99,16.15-0.03
		c1.5-1.6,2.77-3.55,3.71-5.54C1104.28,349.45,1104.84,344.24,1103.86,338.44z"/>
	<path class="st18" d="M1038.86,457.11c-18.55-0.17-34.46-6.87-47.95-19.5c-5.21-4.87-9.7-10.34-13.64-16.28
		c-0.35-0.52-0.74-1.04-0.96-1.61c-0.54-1.38-0.07-2.78,1.12-3.54c1.22-0.79,2.59-0.64,3.65,0.51c0.6,0.65,1.06,1.45,1.56,2.19
		c7.15,10.47,15.88,19.26,27.17,25.23c23.24,12.29,51.28,8.63,71.44-9.27c5.34-4.74,9.92-10.14,13.92-16.03
		c0.45-0.67,0.86-1.38,1.39-1.98c1.13-1.28,2.58-1.47,3.85-0.6c1.28,0.88,1.62,2.29,0.91,3.79c-0.11,0.24-0.27,0.47-0.42,0.69
		c-8.62,13.09-19.45,23.71-33.84,30.35C1058.47,455.01,1048.61,457.1,1038.86,457.11z"/>
	<path class="st19" d="M973.75,259.79c10.09,0.35,18.24,5.06,24.86,12.73c2.18,2.52,4.07,5.25,5.18,8.44c0.47,1.36,1.14,2.9-0.12,4
		c-1.18,1.03-2.61,0.18-3.77-0.44c-2.92-1.57-5.71-3.39-8.66-4.9c-3.5-1.79-7.01-3.66-10.71-4.94c-6-2.07-11.83-1.24-17.26,2.19
		c-4.56,2.88-8.12,6.75-11.3,11.03c-1.23,1.66-2.35,3.4-3.68,4.97c-1.64,1.94-3,1.64-3.86-0.78c-0.81-2.26-0.72-4.59-0.3-6.91
		c2.42-13.15,13.18-23.44,26.39-25.22C971.5,259.84,972.49,259.86,973.75,259.79z"/>
	<path class="st19" d="M1133.29,288.72c-0.3,1.15-0.54,2.76-1.17,4.2c-0.68,1.55-1.75,1.66-2.96,0.44
		c-0.88-0.88-1.56-1.96-2.34-2.94c-2.3-2.86-4.48-5.84-6.98-8.53c-1.69-1.82-3.73-3.38-5.79-4.78c-5.47-3.71-11.51-4.59-17.71-2.39
		c-3.94,1.4-7.66,3.45-11.4,5.36c-2.71,1.38-5.27,3.06-7.96,4.49c-1.15,0.62-2.57,1.42-3.75,0.31c-1.15-1.08-0.51-2.52-0.07-3.79
		c1.2-3.45,3.27-6.38,5.66-9.08c5.46-6.14,12.02-10.42,20.28-11.79c7.66-1.27,14.64,0.51,20.87,4.99
		c6.66,4.79,11.03,11.2,12.74,19.3C1132.97,285.74,1133.06,287,1133.29,288.72z"/>
	<path class="st20" d="M953.78,374.51c7.56,0.58,13.88,0.99,19.9,3.34c1.98,0.77,3.7,1.81,5.07,3.41c1.62,1.89,1.65,3.42-0.11,5.22
		c-0.99,1.01-2.14,1.99-3.4,2.58c-4.59,2.13-9.48,3.14-14.52,3.43c-1.6,0.09-3.2,0.51-4.79,0.46c-5.99-0.2-11.98-0.57-17.7-2.53
		c-2.1-0.72-4.21-1.66-5.99-2.96c-3.15-2.3-3.08-4.76-0.09-7.27c2.4-2.01,5.32-3.08,8.27-3.68
		C945.21,375.55,950.1,375.04,953.78,374.51z"/>
	<path class="st20" d="M1124.14,374.58c5.97,0.48,11.52,0.76,16.81,2.51c2.18,0.72,4.28,1.84,6.22,3.08
		c2.63,1.68,2.71,4.25,0.62,6.54c-2.72,2.98-6.42,3.87-10.07,4.62c-3.83,0.79-7.75,1.53-11.63,1.55
		c-7.41,0.03-14.83-0.48-21.72-3.71c-0.97-0.45-1.89-1.03-2.76-1.66c-2.66-1.93-2.85-5.31-0.12-7.26c1.93-1.38,4.2-2.47,6.47-3.15
		c3.57-1.08,7.21-2.01,11.04-1.94C1120.85,375.17,1122.71,374.75,1124.14,374.58z"/>
	<path class="st18" d="M964.35,320.74c-2.56,3.29-3.46,7.22-4.23,11.17c-0.34,1.75-0.52,3.55-0.57,5.34
		c-0.04,1.58-0.53,2.78-1.86,3.63c-3.05,0.01-4.16-0.91-4.01-3.62c0.31-5.59,1.24-11.07,3.67-16.18
		c3.59-7.56,9.21-12.72,17.53-14.61c10.54-2.39,22.35,2.67,27.87,11.95c0.23,0.39,0.46,0.77,0.66,1.17c1.4,2.79,0.72,4.19-2.45,5.05
		c-1.3-0.31-2.07-1.16-2.72-2.3c-0.64-1.13-1.5-2.14-2.26-3.21c-4.63-5.63-10.7-7.9-17.8-7.26
		C972.15,312.43,967.42,315.37,964.35,320.74z"/>
	<path class="st1" d="M1080.26,319.12c-0.77,1.08-1.64,2.11-2.27,3.26c-0.7,1.27-1.61,2.12-3.06,2.32c-3-1.31-3.55-2.6-1.92-5.38
		c5.33-9.09,13.43-13.5,23.84-13.32c9.41,0.16,16.3,4.88,20.93,12.93c3.29,5.73,4.5,12.05,4.75,18.57c0.11,2.77-1.34,3.72-4.46,3.13
		c-0.98-0.91-1.24-2.06-1.34-3.37c-0.29-4.11-0.81-8.21-2.44-12.04c-0.59-1.38-1.39-2.67-2.1-4c-6.84-12.77-24.13-11.62-31.4-2.63
		c0,0,0,0,0,0C1080.61,318.76,1080.43,318.94,1080.26,319.12z"/>
	<path class="st18" d="M1035.15,375.81c0.7,0.08,1.42,0.08,2.09,0.25c1.06,0.27,1.8,1.09,1.76,2.12c-0.04,0.79-0.51,1.7-1.07,2.29
		c-0.52,0.55-1.44,0.7-2.12,1.12c-2.81,1.74-5.7,3.38-8.37,5.32c-2.17,1.57-2.73,3.74-1.78,6.44c1.4,4.01,3.24,7.78,5.42,11.4
		c1.38,2.3,1.28,3.74-0.28,4.63c-1.46,0.83-2.69,0.28-4.05-1.94c-2.72-4.46-5.01-9.1-6.4-14.18c-0.83-3.06-0.24-5.8,1.78-8.05
		c1.72-1.92,3.71-3.67,5.85-5.09c1.59-1.05,2.23-2.2,2.01-3.96c-0.77-6.41-1.51-12.83-2.33-19.23c-0.23-1.78-0.67-3.53-1-5.29
		c-0.4-2.12,0.27-3.49,1.87-3.81c1.52-0.31,2.72,0.75,3.15,2.91c1.57,8.02,3.09,16.04,3.34,24.24
		C1035.03,375.23,1035.1,375.49,1035.15,375.81z"/>
	<path class="st15" d="M1075.93,183.19c0.07-0.08,0.14-0.17,0.21-0.25c-0.01,0.05,0,0.12-0.03,0.15
		C1076.07,183.13,1075.99,183.15,1075.93,183.19C1075.92,183.18,1075.93,183.19,1075.93,183.19z"/>
	<path class="st21" d="M998.03,332.64c-2.83-0.54-5.06-0.29-6.16,2.37c-0.71,1.71-0.07,3.71,1.41,4.81c1.82,1.35,3.46,1.09,6.5-1.18
		c0.86,8.02-0.06,15.36-5.75,21.35c-4.75,4.99-11.38,4.87-16.17-0.13c-3.5-3.65-5.1-8.17-5.72-13.08
		c-0.73-5.87,0.2-11.45,3.14-16.62c1.35-2.37,3.13-4.37,5.54-5.75c2.72-1.55,5.58-1.96,8.54-0.86
		C993.59,325.11,996.07,328.36,998.03,332.64z"/>
	<path class="st22" d="M964.35,320.74c3.07-5.37,7.8-8.31,13.84-8.86c7.1-0.65,13.18,1.63,17.8,7.26c-2.38-0.39-4.76-0.74-7.12-1.17
		c-7.14-1.3-14.06-0.18-20.91,1.78C966.76,320.1,965.55,320.41,964.35,320.74z"/>
	<path class="st21" d="M1103.86,338.44c0.98,5.8,0.42,11.01-1.89,15.93c-0.94,2-2.2,3.94-3.71,5.54
		c-4.71,5.02-11.33,4.97-16.15,0.03c-2.84-2.91-4.46-6.46-5.31-10.4c-1.39-6.44-0.81-12.65,2.2-18.57c1.33-2.6,3.12-4.83,5.63-6.37
		c3.61-2.2,7.29-2.27,10.94-0.1c3.04,1.8,4.97,4.53,6.6,8.09c-2.95-0.48-5.34-0.19-6.29,2.75c-0.58,1.8,0.21,3.7,1.81,4.66
		C1100.08,341.44,1101.95,340.35,1103.86,338.44z"/>
	<path class="st22" d="M1080.79,318.58c7.26-8.99,24.56-10.14,31.4,2.63c-0.69-0.13-1.42-0.15-2.06-0.41
		c-6.89-2.8-14.09-3.64-21.44-3.27C1086.04,317.67,1083.42,318.22,1080.79,318.58z"/>
	<path class="st22" d="M1080.26,319.12c0.18-0.18,0.35-0.36,0.53-0.53C1080.61,318.76,1080.43,318.94,1080.26,319.12z"/>
</g>
</svg>
